<?xml version="1.0" encoding="utf-8"?>
<!-- Generator: Adobe Illustrator 18.0.0, SVG Export Plug-In . SVG Version: 6.00 Build 0)  -->
<!DOCTYPE svg PUBLIC "-//W3C//DTD SVG 1.1//EN" "http://www.w3.org/Graphics/SVG/1.1/DTD/svg11.dtd">
<svg version="1.1" id="Camada_1" xmlns="http://www.w3.org/2000/svg" xmlns:xlink="http://www.w3.org/1999/xlink" x="0px" y="0px"
	 viewBox="0 0 96.4 24.3" enable-background="new 0 0 96.4 24.3" xml:space="preserve">
<g opacity="0.16">
	<g>
		<rect x="89.4" y="0.3" fill="#333333" width="7" height="24"/>
		<polygon fill="#333333" points="12.6,6.5 9,15.9 5.3,6.5 0.3,6.5 6.5,19.9 11.5,19.9 17.6,6.5 		"/>
		<path fill="#333333" d="M32.7,7.7C31.2,6.6,29.1,6,26.3,6s-4.9,0.6-6.4,1.7c-1.6,1.2-2.5,3.1-2.5,5.5c0,2.4,0.8,4.3,2.5,5.5
			c1.5,1.1,3.6,1.7,6.4,1.7s4.9-0.6,6.4-1.7c1.6-1.2,2.4-3.1,2.4-5.5C35.2,10.8,34.4,9,32.7,7.7z M29.5,16.3
			c-0.8,0.7-1.8,1.1-3.2,1.1c-1.4,0-2.4-0.4-3.2-1.1c-0.8-0.7-1.1-1.7-1.1-3c0-1.3,0.4-2.3,1.1-3s1.8-1.1,3.2-1.1
			c1.4,0,2.4,0.4,3.2,1.1s1.1,1.7,1.1,3C30.6,14.6,30.2,15.6,29.5,16.3z"/>
		<rect x="36.8" y="1.8" fill="#333333" width="4.4" height="18.1"/>
		<path fill="#333333" d="M49.6,16.8c-0.2-0.2-0.3-0.6-0.3-1.1V9.5h3.5V6.5h-3.5V2.4h-4.4v4.1h-2.8v2.9h2.8v6.8
			c0,1.4,0.2,2.4,0.7,2.9c0.6,0.7,1.9,1.1,3.8,1.1c0.9,0,2.1-0.1,3.5-0.3V17c-0.9,0.1-1.7,0.1-2.2,0.1C50.2,17.1,49.8,17,49.6,16.8z
			"/>
		<path fill="#333333" d="M69.4,10.6c0-1.4-0.5-2.5-1.5-3.2C66.8,6.5,64.7,6,61.8,6c-2.3,0-4,0.3-5.1,0.8c-1.6,0.7-2.6,2-2.8,3.9
			h4.3c0.3-0.9,0.7-1.4,1.3-1.7c0.4-0.2,1.2-0.3,2.2-0.3c2.3,0,3.5,0.5,3.5,1.6c0,0.5-0.1,0.9-0.4,1.1c-0.3,0.2-0.7,0.3-1.4,0.4
			L58.6,12c-3.7,0.3-5.6,1.6-5.6,4.1c0,2.9,2,4.4,6,4.4c2.9,0,5-0.6,6.3-1.9c0,0.4,0.1,0.9,0.3,1.4h4.4c-0.3-0.8-0.5-1.6-0.5-2.7
			V10.6z M65.2,14.5c0,1-0.5,1.9-1.5,2.5c-0.9,0.5-1.9,0.8-3.2,0.8c-0.8,0-1.5-0.2-2-0.5C58,17,57.7,16.5,57.7,16
			c0-0.6,0.2-1,0.5-1.3c0.4-0.3,1-0.4,1.8-0.5l2.5-0.2c1.2-0.1,2-0.3,2.6-0.6V14.5z"/>
		<path fill="#333333" d="M78.2,6.9c-0.7,0.4-1.5,1.2-2.4,2.3h0V6.5h-4.3v13.4H76v-5.8c0-2.8,1.5-4.1,4.4-4.1c0.7,0,1.5,0.1,2.4,0.4
			V6.3c-0.4-0.1-1-0.1-1.6-0.1C80,6.2,79,6.4,78.2,6.9z"/>
	</g>
</g>
<linearGradient id="SVGID_1_" gradientUnits="userSpaceOnUse" x1="92.5761" y1="24" x2="92.5761" y2="-1.573426e-010">
	<stop  offset="0.302" style="stop-color:#2C477E"/>
	<stop  offset="0.8218" style="stop-color:#366AA7"/>
</linearGradient>
<path fill-rule="evenodd" clip-rule="evenodd" fill="url(#SVGID_1_)" d="M89.1,0h7v24h-7V0z"/>
<g>
	<linearGradient id="SVGID_2_" gradientUnits="userSpaceOnUse" x1="8.6499" y1="19.6119" x2="8.6499" y2="6.212">
		<stop  offset="0.302" style="stop-color:#2C477E"/>
		<stop  offset="0.8218" style="stop-color:#366AA7"/>
	</linearGradient>
	<path fill="url(#SVGID_2_)" d="M6.1,19.6L0,6.2h5l3.7,9.4l3.7-9.4h5l-6.2,13.4H6.1z"/>
	<linearGradient id="SVGID_3_" gradientUnits="userSpaceOnUse" x1="25.9741" y1="20.1119" x2="25.9741" y2="5.712">
		<stop  offset="0.302" style="stop-color:#2C477E"/>
		<stop  offset="0.8218" style="stop-color:#366AA7"/>
	</linearGradient>
	<path fill="url(#SVGID_3_)" d="M17.1,12.9c0-2.4,0.8-4.3,2.5-5.5c1.5-1.1,3.6-1.7,6.4-1.7s4.9,0.6,6.4,1.7c1.6,1.2,2.4,3.1,2.4,5.5
		c0,2.4-0.8,4.3-2.4,5.5c-1.5,1.1-3.7,1.7-6.4,1.7s-4.9-0.6-6.4-1.7C17.9,17.2,17.1,15.3,17.1,12.9z M21.7,12.9c0,1.3,0.4,2.3,1.1,3
		c0.8,0.7,1.8,1.1,3.2,1.1c1.4,0,2.4-0.4,3.2-1.1c0.8-0.7,1.1-1.7,1.1-3c0-1.3-0.4-2.3-1.1-3S27.3,8.8,26,8.8
		c-1.4,0-2.4,0.4-3.2,1.1S21.7,11.6,21.7,12.9z"/>
	<linearGradient id="SVGID_4_" gradientUnits="userSpaceOnUse" x1="38.6494" y1="19.6119" x2="38.6494" y2="1.462">
		<stop  offset="0.302" style="stop-color:#2C477E"/>
		<stop  offset="0.8218" style="stop-color:#366AA7"/>
	</linearGradient>
	<path fill="url(#SVGID_4_)" d="M36.4,19.6V1.5h4.4v18.1H36.4z"/>
	<linearGradient id="SVGID_5_" gradientUnits="userSpaceOnUse" x1="47.1489" y1="19.9117" x2="47.1489" y2="2.0621">
		<stop  offset="0.302" style="stop-color:#2C477E"/>
		<stop  offset="0.8218" style="stop-color:#366AA7"/>
	</linearGradient>
	<path fill="url(#SVGID_5_)" d="M44.5,6.2V2.1h4.4v4.1h3.5v2.9h-3.5v6.3c0,0.5,0.1,0.9,0.3,1.1c0.2,0.2,0.6,0.3,1.2,0.3
		c0.5,0,1.2,0,2.2-0.1v2.9c-1.4,0.2-2.5,0.3-3.5,0.3c-1.9,0-3.2-0.4-3.8-1.1c-0.5-0.5-0.7-1.5-0.7-2.9V9.2h-2.8V6.2H44.5z"/>
	<linearGradient id="SVGID_6_" gradientUnits="userSpaceOnUse" x1="61.1357" y1="20.1119" x2="61.1357" y2="5.712">
		<stop  offset="0.302" style="stop-color:#2C477E"/>
		<stop  offset="0.8218" style="stop-color:#366AA7"/>
	</linearGradient>
	<path fill="url(#SVGID_6_)" d="M57.8,10.3h-4.3c0.2-1.9,1.2-3.1,2.8-3.9c1.2-0.5,2.9-0.8,5.1-0.8c2.9,0,5,0.4,6.2,1.3
		c1,0.7,1.5,1.8,1.5,3.2v6.6c0,1.1,0.2,2,0.5,2.7h-4.4c-0.2-0.6-0.3-1-0.3-1.4c-1.3,1.3-3.4,1.9-6.3,1.9c-4,0-6-1.5-6-4.4
		c0-2.5,1.9-3.9,5.6-4.1l4.7-0.3c0.7-0.1,1.2-0.2,1.4-0.4c0.3-0.2,0.4-0.5,0.4-1.1c0-1.1-1.2-1.6-3.5-1.6c-1,0-1.8,0.1-2.2,0.3
		C58.5,8.9,58.1,9.4,57.8,10.3z M64.8,14.2v-1.1c-0.6,0.3-1.5,0.5-2.6,0.6l-2.5,0.2c-0.8,0.1-1.4,0.2-1.8,0.5
		c-0.4,0.3-0.5,0.7-0.5,1.3c0,0.6,0.3,1,0.8,1.4c0.5,0.3,1.2,0.5,2,0.5c1.2,0,2.3-0.3,3.2-0.8C64.3,16.1,64.8,15.2,64.8,14.2z"/>
	<linearGradient id="SVGID_7_" gradientUnits="userSpaceOnUse" x1="76.8486" y1="19.6119" x2="76.8486" y2="5.8619">
		<stop  offset="0.302" style="stop-color:#2C477E"/>
		<stop  offset="0.8218" style="stop-color:#366AA7"/>
	</linearGradient>
	<path fill="url(#SVGID_7_)" d="M71.2,19.6V6.2h4.3v2.6h0c0.9-1.1,1.6-1.8,2.4-2.3c0.8-0.5,1.8-0.7,3-0.7c0.6,0,1.2,0,1.6,0.1v4.1
		c-1-0.3-1.8-0.4-2.4-0.4c-3,0-4.4,1.4-4.4,4.1v5.8H71.2z"/>
</g>
</svg>
