<?xml version="1.0" encoding="utf-8"?>
<!-- Generator: Adobe Illustrator 18.0.0, SVG Export Plug-In . SVG Version: 6.00 Build 0)  -->
<!DOCTYPE svg PUBLIC "-//W3C//DTD SVG 1.1//EN" "http://www.w3.org/Graphics/SVG/1.1/DTD/svg11.dtd">
<svg version="1.1" id="Camada_1" xmlns="http://www.w3.org/2000/svg" xmlns:xlink="http://www.w3.org/1999/xlink" x="0px" y="0px"
	 viewBox="0 0 162 40.4" enable-background="new 0 0 162 40.4" xml:space="preserve">
<linearGradient id="SVGID_1_" gradientUnits="userSpaceOnUse" x1="10.6858" y1="35.4753" x2="10.6858" y2="7.275958e-012">
	<stop  offset="0.2723" style="stop-color:#2C4981"/>
	<stop  offset="0.5842" style="stop-color:#346AA7"/>
</linearGradient>
<path fill="url(#SVGID_1_)" d="M11.1,12l-1.5,4.7c-0.4-0.3-0.7-0.6-1-1.1c-0.4-0.8-0.5-1.6-0.2-2.5l3.1-10.1l6.2,1.9l-0.1,0.4
	l3.1-0.9l0-0.1C21,3.7,20.7,3,20,2.8l-9.2-2.8C10.7,0,10.6,0,10.5,0c-0.2,0-0.4,0-0.6,0.1C9.7,0.3,9.5,0.5,9.4,0.8L5.8,12.4
	C5,15,6.2,17.8,8.5,19.2L4.7,31.6c-2.2-0.5-4-0.4-4.2,0.3c-0.2,0.8,1.8,2.1,4.6,3c2.8,0.8,5.3,0.9,5.5,0.1c0.2-0.7-1.2-1.7-3.3-2.5
	L11.1,20c1.2,0.1,4.8-0.3,6.1-4.1L15.4,10L11.1,12z"/>
<linearGradient id="SVGID_2_" gradientUnits="userSpaceOnUse" x1="27.315" y1="39.9991" x2="27.315" y2="4.5234">
	<stop  offset="0.2723" style="stop-color:#2C4981"/>
	<stop  offset="0.5842" style="stop-color:#346AA7"/>
</linearGradient>
<path fill="url(#SVGID_2_)" d="M37.5,36.4c-0.2-0.7-2-0.7-4.2-0.3l-3.2-10.5l-0.6-2c1-0.5,1.8-1.3,2.3-2.3c0.7-1.4,0.9-3,0.4-4.5
	L28.6,5.4c-0.2-0.5-0.6-0.8-1.1-0.8c-0.1,0-0.2,0-0.3,0.1L18,7.3c-0.3,0.1-0.6,0.3-0.7,0.6c-0.1,0.3-0.2,0.6-0.1,0.9l1.1,3.7
	l2.4,7.8c1.6,4.3,5.5,4.2,6.1,4.2l0.6,1.9l3.2,10.5c-2.1,0.8-3.5,1.8-3.3,2.5c0.2,0.8,2.7,0.8,5.5-0.1
	C35.7,38.5,37.7,37.2,37.5,36.4z M28.4,21.2l-1.5-4.7L21.6,14l-1.4-4.6l6.2-1.9l3.1,10.1c0.3,0.8,0.2,1.7-0.2,2.5
	C29.1,20.6,28.8,20.9,28.4,21.2z"/>
<g>
	<path fill="#F8A10F" d="M53.6,13h2.8c-0.7,1.8-2.4,2.7-5,2.7c-1.7,0-2.9-0.3-3.8-1c-1-0.7-1.5-1.8-1.5-3.3s0.5-2.6,1.5-3.3
		c0.9-0.7,2.2-1,3.8-1c1.7,0,3,0.4,3.9,1.3c0.8,0.8,1.3,2,1.3,3.5V12h-7.7v0c0,0.5,0.2,0.9,0.6,1.3c0.5,0.4,1.1,0.7,2,0.7
		C52.5,14,53.2,13.7,53.6,13z M48.8,10.5h5v0c0-0.4-0.2-0.7-0.5-1.1c-0.5-0.5-1.1-0.7-2-0.7c-0.9,0-1.6,0.3-2,0.8
		C49,9.9,48.8,10.2,48.8,10.5L48.8,10.5z"/>
	<path fill="#F8A10F" d="M57,12.9h2.9c0.1,0.8,0.8,1.1,2,1.1c1.3,0,1.9-0.3,1.9-0.9c0-0.2-0.1-0.4-0.3-0.5c-0.2-0.1-0.6-0.2-1.2-0.3
		L59.9,12c-0.9-0.1-1.6-0.3-2-0.7c-0.5-0.4-0.7-0.9-0.7-1.6c0-1.8,1.5-2.7,4.4-2.7c1.7,0,2.9,0.3,3.7,0.8c0.6,0.4,0.9,1.1,1,1.9
		h-2.9c-0.1-0.7-0.7-1.1-1.8-1.1C60.5,8.7,60,9,60,9.5c0,0.2,0.1,0.4,0.2,0.5c0.2,0.1,0.6,0.2,1.1,0.3l1.8,0.2
		c1.3,0.1,2.2,0.4,2.8,0.8c0.5,0.4,0.8,0.9,0.8,1.6c0,1.1-0.5,1.8-1.6,2.3c-0.8,0.3-1.9,0.5-3.3,0.5C58.7,15.7,57.1,14.7,57,12.9z"
		/>
	<path fill="#F8A10F" d="M67.6,18.3v-11h2.5v1.1h0c0.5-0.5,1-0.9,1.5-1.1c0.4-0.2,0.9-0.2,1.5-0.2c1.4,0,2.5,0.4,3.3,1
		c0.9,0.8,1.3,1.8,1.3,3.2c0,1.3-0.4,2.3-1.3,3.1c-0.9,0.8-1.9,1.2-3.2,1.2c-1.5,0-2.5-0.4-3.1-1.2v3.9H67.6z M70.1,11.4
		c0,0.7,0.3,1.3,0.8,1.7c0.5,0.4,1,0.6,1.7,0.6c0.7,0,1.3-0.2,1.7-0.6c0.5-0.4,0.8-1,0.8-1.7c0-0.7-0.3-1.3-0.8-1.7
		c-0.5-0.4-1-0.6-1.7-0.6c-0.7,0-1.3,0.2-1.7,0.6C70.4,10.1,70.1,10.7,70.1,11.4z"/>
	<path fill="#F8A10F" d="M81.4,9.8h-2.5c0.1-1.1,0.7-1.9,1.7-2.3C81.2,7.2,82.2,7,83.6,7c1.8,0,3,0.3,3.7,0.8
		c0.6,0.4,0.9,1.1,0.9,1.9v4c0,0.6,0.1,1.2,0.3,1.6h-2.6c-0.1-0.3-0.2-0.6-0.2-0.9c-0.8,0.8-2,1.2-3.8,1.2c-2.4,0-3.6-0.9-3.6-2.6
		c0-1.5,1.1-2.3,3.3-2.5l2.8-0.2c0.4,0,0.7-0.1,0.9-0.2c0.2-0.1,0.2-0.3,0.2-0.6c0-0.6-0.7-1-2.1-1c-0.6,0-1.1,0.1-1.3,0.2
		C81.8,8.9,81.6,9.3,81.4,9.8z M85.6,12.1v-0.7c-0.4,0.2-0.9,0.3-1.6,0.3l-1.5,0.1c-0.5,0-0.8,0.1-1.1,0.3c-0.2,0.2-0.3,0.4-0.3,0.8
		c0,0.4,0.2,0.6,0.5,0.8c0.3,0.2,0.7,0.3,1.2,0.3c0.7,0,1.4-0.2,1.9-0.5C85.3,13.2,85.6,12.7,85.6,12.1z"/>
	<path fill="#F8A10F" d="M96.6,12.2h2.7c-0.2,1.3-0.8,2.2-1.7,2.8c-0.8,0.5-1.9,0.7-3.3,0.7l-0.3,0.4c0.2,0,0.4-0.1,0.7-0.1
		c0.4,0,0.7,0.1,1,0.3c0.3,0.2,0.4,0.5,0.4,0.9c0,0.5-0.3,0.9-0.8,1.1c-0.4,0.2-0.8,0.3-1.4,0.3c-0.8,0-1.5-0.1-1.9-0.2l0.3-0.8
		c0.3,0.1,0.8,0.2,1.2,0.2c0.5,0,0.7-0.2,0.7-0.5c0-0.3-0.2-0.5-0.5-0.5c-0.2,0-0.4,0-0.7,0.1l-0.3-0.3l0.6-1
		c-2.9-0.2-4.3-1.6-4.3-4.3c0-1.5,0.5-2.6,1.5-3.3c0.9-0.7,2.2-1,3.8-1c2.9,0,4.5,1.1,4.9,3.3h-2.7c-0.3-0.9-1-1.4-2.2-1.4
		c-0.8,0-1.5,0.2-1.9,0.6c-0.4,0.4-0.7,1-0.7,1.8s0.2,1.4,0.7,1.8c0.5,0.4,1.1,0.6,1.9,0.6c0.6,0,1.1-0.1,1.5-0.4
		C96.3,13.1,96.5,12.7,96.6,12.2z"/>
	<path fill="#F8A10F" d="M99.7,11.3c0-1.5,0.5-2.6,1.5-3.3c0.9-0.7,2.2-1,3.8-1s2.9,0.3,3.9,1c1,0.7,1.5,1.8,1.5,3.3
		s-0.5,2.6-1.5,3.3c-0.9,0.7-2.2,1-3.9,1s-2.9-0.3-3.8-1C100.2,13.9,99.7,12.8,99.7,11.3z M102.5,11.3c0,0.8,0.2,1.4,0.7,1.8
		c0.5,0.4,1.1,0.6,1.9,0.6s1.5-0.2,1.9-0.6s0.7-1,0.7-1.8s-0.2-1.4-0.7-1.8c-0.5-0.4-1.1-0.6-1.9-0.6s-1.5,0.2-1.9,0.6
		C102.7,9.9,102.5,10.6,102.5,11.3z"/>
	<path fill="#F8A10F" d="M123.8,15.4v-1h0c-0.7,0.9-1.8,1.3-3.2,1.3c-1.3,0-2.4-0.4-3.2-1.1c-0.9-0.8-1.3-1.8-1.3-3.2
		c0-1.3,0.4-2.3,1.3-3.1c0.9-0.8,1.9-1.2,3.2-1.2c1.5,0,2.5,0.4,3.1,1.2V4.5h2.6v10.9H123.8z M118.8,11.4c0,0.7,0.3,1.3,0.8,1.7
		c0.5,0.4,1,0.6,1.7,0.6c0.7,0,1.3-0.2,1.7-0.6c0.5-0.4,0.7-1,0.7-1.7c0-0.7-0.2-1.3-0.7-1.7c-0.5-0.4-1-0.6-1.7-0.6
		c-0.7,0-1.3,0.2-1.7,0.6C119.1,10.1,118.8,10.7,118.8,11.4z"/>
	<path fill="#F8A10F" d="M134.7,13h2.8c-0.7,1.8-2.4,2.7-5,2.7c-1.7,0-2.9-0.3-3.8-1c-1-0.7-1.5-1.8-1.5-3.3s0.5-2.6,1.5-3.3
		c0.9-0.7,2.2-1,3.8-1c1.7,0,3,0.4,3.9,1.3c0.9,0.8,1.3,2,1.3,3.5V12h-7.7v0c0,0.5,0.2,0.9,0.6,1.3c0.5,0.4,1.1,0.7,2,0.7
		C133.6,14,134.3,13.7,134.7,13z M129.9,10.5h5v0c0-0.4-0.2-0.7-0.5-1.1c-0.5-0.5-1.1-0.7-2-0.7c-0.9,0-1.6,0.3-2,0.8
		C130.1,9.9,129.9,10.2,129.9,10.5L129.9,10.5z"/>
</g>
<g opacity="0.15">
	<path fill="#555655" d="M46.9,39.7V21.8h16.7v3.4H51.8v3.7H63v3.3H51.8v4.1h11.9v3.4H46.9z"/>
	<path fill="#555655" d="M69.8,39.7l-6.1-13.4h5l3.6,9.4l3.7-9.4h5l-6.2,13.4H69.8z"/>
	<path fill="#555655" d="M93.1,35.7h4.7c-1.2,3-4,4.5-8.4,4.5c-2.8,0-4.9-0.6-6.4-1.7c-1.6-1.2-2.5-3.1-2.5-5.5
		c0-2.4,0.8-4.3,2.5-5.5c1.5-1.1,3.6-1.7,6.4-1.7c2.9,0,5,0.7,6.5,2.1c1.4,1.3,2.1,3.3,2.1,5.9v0.4H85.2v0c0,0.8,0.3,1.5,1,2.1
		c0.8,0.8,1.9,1.1,3.3,1.1C91.3,37.4,92.5,36.9,93.1,35.7z M85.2,31.6h8.4v0c0-0.6-0.3-1.2-0.9-1.8c-0.8-0.8-1.9-1.2-3.3-1.2
		c-1.5,0-2.6,0.5-3.4,1.4C85.4,30.5,85.2,31.1,85.2,31.6L85.2,31.6z"/>
	<path fill="#555655" d="M110.7,39.7v-7.6c0-1.8-1-2.8-3-2.8c-2.5,0-3.8,1.3-3.8,3.9v6.5h-4.4V26.3h4.3v1.9h0
		c0.4-0.6,1.1-1.1,2.1-1.6c1-0.5,2.2-0.7,3.4-0.7c1.5,0,2.7,0.3,3.7,0.9c1.3,0.8,2,2.1,2,3.9v8.9H110.7z"/>
	<path fill="#555655" d="M118.8,26.3v-4.1h4.4v4.1h3.5v2.9h-3.5v6.3c0,0.5,0.1,0.9,0.3,1.1c0.2,0.2,0.6,0.3,1.2,0.3
		c0.5,0,1.2,0,2.2-0.1v2.9c-1.4,0.2-2.5,0.3-3.5,0.3c-1.9,0-3.2-0.4-3.8-1.1c-0.5-0.5-0.7-1.5-0.7-2.9v-6.8H116v-2.9H118.8z"/>
	<path fill="#555655" d="M127.1,33c0-2.4,0.8-4.3,2.5-5.5c1.5-1.1,3.6-1.7,6.4-1.7s4.9,0.6,6.4,1.7c1.6,1.2,2.4,3.1,2.4,5.5
		c0,2.4-0.8,4.3-2.4,5.5c-1.5,1.1-3.7,1.7-6.4,1.7s-4.9-0.6-6.4-1.7C127.9,37.3,127.1,35.4,127.1,33z M131.6,33c0,1.3,0.4,2.3,1.1,3
		c0.8,0.7,1.8,1.1,3.2,1.1c1.4,0,2.4-0.4,3.2-1.1c0.8-0.7,1.1-1.7,1.1-3c0-1.3-0.4-2.3-1.1-3s-1.8-1.1-3.2-1.1
		c-1.4,0-2.4,0.4-3.2,1.1S131.6,31.7,131.6,33z"/>
	<path fill="#555655" d="M145.6,35.5h4.9c0.2,1.3,1.3,1.9,3.3,1.9c2.1,0,3.2-0.5,3.2-1.5c0-0.4-0.2-0.7-0.5-0.9
		c-0.3-0.2-1-0.4-2-0.5l-4-0.6c-1.5-0.2-2.6-0.6-3.3-1.1c-0.8-0.6-1.2-1.5-1.2-2.7c0-3,2.4-4.5,7.3-4.5c2.8,0,4.9,0.4,6.2,1.3
		c1,0.7,1.6,1.8,1.8,3.2h-4.8c-0.2-1.2-1.2-1.8-3-1.8c-1.9,0-2.9,0.5-2.9,1.4c0,0.4,0.1,0.6,0.4,0.8c0.3,0.2,0.9,0.4,1.8,0.5l3,0.3
		c2.2,0.2,3.7,0.7,4.6,1.4c0.9,0.6,1.3,1.5,1.3,2.8c0,1.8-0.9,3-2.7,3.8c-1.3,0.5-3.2,0.8-5.6,0.8C148.5,40.2,145.8,38.6,145.6,35.5
		z"/>
</g>
<g>
	<linearGradient id="SVGID_3_" gradientUnits="userSpaceOnUse" x1="54.9771" y1="38.9451" x2="54.9771" y2="21.095">
		<stop  offset="0.2723" style="stop-color:#2C4981"/>
		<stop  offset="0.5842" style="stop-color:#346AA7"/>
	</linearGradient>
	<path fill="url(#SVGID_3_)" d="M46.6,38.9V21.1h16.7v3.4H51.4v3.7h11.2v3.3H51.4v4.1h11.9v3.4H46.6z"/>
	<linearGradient id="SVGID_4_" gradientUnits="userSpaceOnUse" x1="71.9395" y1="38.9451" x2="71.9395" y2="25.5452">
		<stop  offset="0.2723" style="stop-color:#2C4981"/>
		<stop  offset="0.5842" style="stop-color:#346AA7"/>
	</linearGradient>
	<path fill="url(#SVGID_4_)" d="M69.4,38.9l-6.1-13.4h5l3.6,9.4l3.7-9.4h5l-6.2,13.4H69.4z"/>
	<linearGradient id="SVGID_5_" gradientUnits="userSpaceOnUse" x1="89.0146" y1="39.4451" x2="89.0146" y2="25.0452">
		<stop  offset="0.2723" style="stop-color:#2C4981"/>
		<stop  offset="0.5842" style="stop-color:#346AA7"/>
	</linearGradient>
	<path fill="url(#SVGID_5_)" d="M92.8,34.9h4.7c-1.2,3-4,4.5-8.4,4.5c-2.8,0-4.9-0.6-6.4-1.7c-1.6-1.2-2.5-3.1-2.5-5.5
		c0-2.4,0.8-4.3,2.5-5.5c1.5-1.1,3.6-1.7,6.4-1.7c2.9,0,5,0.7,6.5,2.1c1.4,1.3,2.1,3.3,2.1,5.9v0.4H84.8v0c0,0.8,0.3,1.5,1,2.1
		c0.8,0.8,1.9,1.1,3.3,1.1C90.9,36.7,92.2,36.1,92.8,34.9z M84.8,30.8h8.4v0c0-0.6-0.3-1.2-0.9-1.8c-0.8-0.8-1.9-1.2-3.3-1.2
		c-1.5,0-2.6,0.5-3.4,1.4C85.1,29.8,84.8,30.3,84.8,30.8L84.8,30.8z"/>
	<linearGradient id="SVGID_6_" gradientUnits="userSpaceOnUse" x1="107.0024" y1="38.9451" x2="107.0024" y2="25.1951">
		<stop  offset="0.2723" style="stop-color:#2C4981"/>
		<stop  offset="0.5842" style="stop-color:#346AA7"/>
	</linearGradient>
	<path fill="url(#SVGID_6_)" d="M110.4,38.9v-7.6c0-1.8-1-2.8-3-2.8c-2.5,0-3.8,1.3-3.8,3.9v6.5h-4.4V25.5h4.3v1.9h0
		c0.4-0.6,1.1-1.1,2.1-1.6c1-0.5,2.2-0.7,3.4-0.7c1.5,0,2.7,0.3,3.7,0.9c1.3,0.8,2,2.1,2,3.9v8.9H110.4z"/>
	<linearGradient id="SVGID_7_" gradientUnits="userSpaceOnUse" x1="121.0645" y1="39.2449" x2="121.0645" y2="21.3953">
		<stop  offset="0.2723" style="stop-color:#2C4981"/>
		<stop  offset="0.5842" style="stop-color:#346AA7"/>
	</linearGradient>
	<path fill="url(#SVGID_7_)" d="M118.4,25.5v-4.1h4.4v4.1h3.5v2.9h-3.5v6.3c0,0.5,0.1,0.9,0.3,1.1c0.2,0.2,0.6,0.3,1.2,0.3
		c0.5,0,1.2,0,2.2-0.1V39c-1.4,0.2-2.5,0.3-3.5,0.3c-1.9,0-3.2-0.4-3.8-1.1c-0.5-0.5-0.7-1.5-0.7-2.9v-6.8h-2.8v-2.9H118.4z"/>
	<linearGradient id="SVGID_8_" gradientUnits="userSpaceOnUse" x1="135.5889" y1="39.4451" x2="135.5889" y2="25.0452">
		<stop  offset="0.2723" style="stop-color:#2C4981"/>
		<stop  offset="0.5842" style="stop-color:#346AA7"/>
	</linearGradient>
	<path fill="url(#SVGID_8_)" d="M126.7,32.2c0-2.4,0.8-4.3,2.5-5.5c1.5-1.1,3.6-1.7,6.4-1.7s4.9,0.6,6.4,1.7
		c1.6,1.2,2.4,3.1,2.4,5.5c0,2.4-0.8,4.3-2.4,5.5c-1.5,1.1-3.7,1.7-6.4,1.7s-4.9-0.6-6.4-1.7C127.6,36.5,126.7,34.7,126.7,32.2z
		 M131.3,32.2c0,1.3,0.4,2.3,1.1,3c0.8,0.7,1.8,1.1,3.2,1.1c1.4,0,2.4-0.4,3.2-1.1c0.8-0.7,1.1-1.7,1.1-3c0-1.3-0.4-2.3-1.1-3
		s-1.8-1.1-3.2-1.1c-1.4,0-2.4,0.4-3.2,1.1S131.3,30.9,131.3,32.2z"/>
	<linearGradient id="SVGID_9_" gradientUnits="userSpaceOnUse" x1="153.3638" y1="39.4451" x2="153.3638" y2="25.0452">
		<stop  offset="0.2723" style="stop-color:#2C4981"/>
		<stop  offset="0.5842" style="stop-color:#346AA7"/>
	</linearGradient>
	<path fill="url(#SVGID_9_)" d="M145.3,34.8h4.9c0.2,1.3,1.3,1.9,3.3,1.9c2.1,0,3.2-0.5,3.2-1.5c0-0.4-0.2-0.7-0.5-0.9
		c-0.3-0.2-1-0.4-2-0.5l-4-0.6c-1.5-0.2-2.6-0.6-3.3-1.1c-0.8-0.6-1.2-1.5-1.2-2.7c0-3,2.4-4.5,7.3-4.5c2.8,0,4.9,0.4,6.2,1.3
		c1,0.7,1.6,1.8,1.8,3.2h-4.8c-0.2-1.2-1.2-1.8-3-1.8c-1.9,0-2.9,0.5-2.9,1.4c0,0.4,0.1,0.6,0.4,0.8c0.3,0.2,0.9,0.4,1.8,0.5l3,0.3
		c2.2,0.2,3.7,0.7,4.6,1.4c0.9,0.6,1.3,1.5,1.3,2.8c0,1.8-0.9,3-2.7,3.8c-1.3,0.5-3.2,0.8-5.6,0.8C148.1,39.4,145.5,37.9,145.3,34.8
		z"/>
</g>
</svg>
