<?xml version="1.0" encoding="utf-8"?>
<!-- Generator: Adobe Illustrator 18.0.0, SVG Export Plug-In . SVG Version: 6.00 Build 0)  -->
<!DOCTYPE svg PUBLIC "-//W3C//DTD SVG 1.1//EN" "http://www.w3.org/Graphics/SVG/1.1/DTD/svg11.dtd">
<svg version="1.1" id="Camada_1" xmlns="http://www.w3.org/2000/svg" xmlns:xlink="http://www.w3.org/1999/xlink" x="0px" y="0px"
	 viewBox="0 0 29 25" enable-background="new 0 0 29 25" xml:space="preserve">
<g id="Camada_1">
	<g>
		<path fill="#193B7A" d="M23.5,25H5.3c-1.5,0-2.8-1.2-2.8-2.8l0-7.8l-0.3,0l-0.1,0c-0.6-0.2-1.1-0.5-1.5-1c-0.9-1.2-0.7-3,0.5-3.9
			l11.7-8.9c1-0.7,2.4-0.7,3.4,0l11.7,8.9c0.6,0.5,1,1.1,1.1,1.8c0.1,0.7-0.1,1.5-0.6,2.1c-0.5,0.6-1.3,1-2.1,1.1v7.8
			C26.3,23.8,25.1,25,23.5,25z"/>
		<g>
			<rect x="7" y="10" fill="#FFFFFF" width="15" height="1.9"/>
		</g>
		<g>
			<rect x="7" y="13.9" fill="#FFFFFF" width="15" height="1.9"/>
		</g>
		<g>
			<rect x="7" y="17.9" fill="#FFFFFF" width="15" height="1.9"/>
		</g>
	</g>
</g>
</svg>
