<?xml version="1.0" encoding="utf-8"?>
<!-- Generator: Adobe Illustrator 18.0.0, SVG Export Plug-In . SVG Version: 6.00 Build 0)  -->
<!DOCTYPE svg PUBLIC "-//W3C//DTD SVG 1.1//EN" "http://www.w3.org/Graphics/SVG/1.1/DTD/svg11.dtd">
<svg version="1.1" id="Camada_1" xmlns="http://www.w3.org/2000/svg" xmlns:xlink="http://www.w3.org/1999/xlink" x="0px" y="0px"
	 viewBox="0 0 64.7 64.7" enable-background="new 0 0 64.7 64.7" xml:space="preserve">
<circle fill="#F63434" cx="32.3" cy="32.3" r="32.3"/>
<polygon fill="#FDFCFC" points="20.7,13.5 24.3,22.5 24.3,29.3 26.5,29.3 26.5,22.4 29.4,13.5 26.8,13.5 25,20 23.3,13.5 "/>
<path fill="#FFFFFF" d="M35.4,19.3c-0.2-0.5-1.4-2.3-3.4-1.8c0,0-2.6,0.7-2.6,2.2s-0.1,8.2-0.1,8.2s1,1.7,2.5,1.6
	c0.4,0,2.1,0.4,3.3-1.3C35.8,27,35.1,19.2,35.4,19.3z M33.4,27.6c0.1,0.4-0.4,0.9-1.7,0.7c-0.4-0.1-0.4-1.2-0.4-1.7
	c0-1.5,0-2.7,0.1-3.7c0.1-1.5,0.1-2.4,0-2.7c-0.1-0.6,0-0.9,0.3-0.8c0.5,0,0.7-0.1,1.4,0c0.2,0,0.3,0.2,0.3,0.4
	c-0.1,1.5,0,2.8,0,4.3C33.4,25,33.2,26.6,33.4,27.6z"/>
<path fill="#FEFEFE" d="M23.3,37.3v12.8c-0.3-0.5,1.3,3,3.6,1.1c2.3-1.8,0.8-0.9,1.5,0.2l1.9-0.1l0-13.9h-2l0.1,11
	c0,0.3-3,1.7-3.1,0.8c-0.3-3.7,0.2-11.1,0-11.9H23.3z"/>
<path fill="#FEFEFE" d="M37.7,17.9v10.4c-0.2-0.4,1,2.4,2.9,0.9c1.9-1.5,0.7-0.7,1.2,0.1l1.5-0.1l0-11.3h-1.6l0.1,8.9
	c0,0.3-2.5,1.4-2.5,0.7c-0.2-3,0.2-9,0-9.7H37.7z"/>
<polygon fill="#FFFFFF" points="14.3,32.3 22.4,32.3 22.3,34.4 19.3,34.4 19.3,51.3 17.3,51.3 17.3,34.4 14.3,34.3 "/>
<path fill="#FFFFFF" d="M40.3,38.5c-1.9-2.3-4.3,0-4.6,0v-6.2h-2.3l0,19c1.7,0.1,2,0.3,1.9-0.9c0-0.2,5,1.8,4.7,0.6
	C41.3,49.8,41.7,40.1,40.3,38.5z M38.3,39.9c-0.3,2.2,0.2,4.9,0,7c-0.1,0.9,0.3,2.5,0,2.3c-0.4-0.1-2.5,0.4-2.8,0.1
	c-0.5-0.6-0.1-3.6-0.2-4.5c-0.2-1.6,0.1-2.8,0-4.4c0-0.2-0.1-0.7,0-0.8c-0.1-0.2-0.1-0.6,0.2-0.5C36.6,39.7,38.5,38.5,38.3,39.9z"/>
<path fill="#FFFFFF" d="M50.4,46.4h-2.1c0,0.1,0,0.8,0,3l-2.9,0l0-4.9h5c-0.2-0.5,0.9-6.3-1.5-7c-5.2-1.4-5.2,1.8-5.5,1.4l0,10
	c-0.1,0.4-0.1,2.7,3.8,2.4C51.3,51.1,50.1,46.4,50.4,46.4z M45.3,41.8c0.1-0.7,0-1.3,0-2c0-0.2-0.1-0.3,0.1-0.4c0.2-0.1,0.3,0,0.4,0
	c0.1,0,0.7,0,0.9,0c0.8,0,0.8-0.1,1.6,0c0.2,0,0.1,0,0.1,0.2c0,0.6,0.1,1.2,0,1.7c0,0.3,0.1,1,0,1c-0.6,0.1-1.6-0.1-2.2,0
	C45.5,42.4,45.3,42.4,45.3,41.8z"/>
</svg>
