<?xml version="1.0" encoding="utf-8"?>
<!-- Generator: Adobe Illustrator 18.0.0, SVG Export Plug-In . SVG Version: 6.00 Build 0)  -->
<!DOCTYPE svg PUBLIC "-//W3C//DTD SVG 1.1//EN" "http://www.w3.org/Graphics/SVG/1.1/DTD/svg11.dtd">
<svg version="1.1" id="Camada_1" xmlns="http://www.w3.org/2000/svg" xmlns:xlink="http://www.w3.org/1999/xlink" x="0px" y="0px"
	 viewBox="0 0 32 32" enable-background="new 0 0 32 32" xml:space="preserve">
<path fill-rule="evenodd" clip-rule="evenodd" fill="#2B477C" d="M32,16c0,4.4-1.6,8.2-4.7,11.3S20.4,32,16,32
	c-4.4,0-8.2-1.6-11.3-4.7C1.6,24.2,0,20.4,0,16c0-4.4,1.6-8.2,4.7-11.3C7.8,1.6,11.6,0,16,0c4.4,0,8.2,1.6,11.3,4.7
	C30.4,7.8,32,11.6,32,16z M30.7,16c0-4.1-1.4-7.5-4.3-10.4C23.6,2.8,20.1,1.3,16,1.3c-4.1,0-7.6,1.4-10.4,4.3
	C2.8,8.5,1.3,11.9,1.3,16c0,4.1,1.4,7.6,4.3,10.4c2.8,2.8,6.3,4.3,10.4,4.3s7.6-1.4,10.4-4.3C29.2,23.5,30.7,20.1,30.7,16z
	 M16.3,22.3h0.5c2.1,0,3.2,1.4,3.2,4.1c0,1-0.2,1.7-0.5,2.1c-0.3,0.4-1,0.6-2,0.6H17c0.3-0.9,0.5-1.8,0.5-2.5
	C17.5,25,17.1,23.6,16.3,22.3z M17,2.7h0.7c0.9,0,1.4,0.2,1.8,0.6c0.3,0.4,0.5,1.1,0.5,2.1c0,2.8-1,4.2-3,4.2h-0.6
	c0.7-1.3,1.1-2.8,1.1-4.3C17.3,4.3,17.2,3.5,17,2.7z M12,4.2c1.3-0.8,2.7-1.3,4.3-1.6c0.2,0.8,0.3,1.7,0.3,2.5
	c0,1.4-0.4,2.8-1.1,4.3h-0.3c-1.4,0-2.1,2.1-2.1,6.3c0,4.3,0.7,6.5,2.1,6.5h0.3c0.8,1.4,1.2,2.8,1.2,4.2c0,0.8-0.2,1.7-0.5,2.5
	c-1.5-0.2-2.9-0.8-4.3-1.6c-0.7-1.8-1.2-3.6-1.5-5.6C10.2,20,10,18,10,15.9c0-2.1,0.2-4.2,0.5-6.1C10.8,7.8,11.3,6,12,4.2z"/>
</svg>
