<?xml version="1.0" encoding="utf-8"?>
<!-- Generator: Adobe Illustrator 18.0.0, SVG Export Plug-In . SVG Version: 6.00 Build 0)  -->
<!DOCTYPE svg PUBLIC "-//W3C//DTD SVG 1.1//EN" "http://www.w3.org/Graphics/SVG/1.1/DTD/svg11.dtd">
<svg version="1.1" id="Camada_1" xmlns="http://www.w3.org/2000/svg" xmlns:xlink="http://www.w3.org/1999/xlink" x="0px" y="0px"
	 viewBox="0 0 65 64.7" enable-background="new 0 0 65 64.7" xml:space="preserve">
<circle fill="#F11180" cx="32.3" cy="32.3" r="32.3"/>
<path fill="#FEFEFE" d="M18,50l0-18.2l-4,0v-5.8l4,0.1v-7.5c0,0,1.6-4.8,5.9-4.9c3.1-0.1,8.2-0.1,8.2-0.1L32,19.5l-3,0l-0.6,0
	c-0.8-0.1-1.9,0.2-2.2,1C26,20.9,26,21.5,26,22.1l0,4.1l6,0l0,5.7l-6,0l0,18.1L18,50z"/>
<path fill="#FEFEFE" d="M34.3,26.5h7v4.1c0,0,2.2-4.9,5.2-5.3c2.7-0.3,4.8,0,4.8,0v6.9c0,0-8.9-1.1-8.9,3.3c0,6.2-0.2,14.9-0.2,14.9
	h-7.9V26.5z"/>
</svg>
