<?xml version="1.0" encoding="utf-8"?>
<!-- Generator: Adobe Illustrator 18.0.0, SVG Export Plug-In . SVG Version: 6.00 Build 0)  -->
<!DOCTYPE svg PUBLIC "-//W3C//DTD SVG 1.1//EN" "http://www.w3.org/Graphics/SVG/1.1/DTD/svg11.dtd">
<svg version="1.1" id="Camada_1" xmlns="http://www.w3.org/2000/svg" xmlns:xlink="http://www.w3.org/1999/xlink" x="0px" y="0px"
	 viewBox="0 0 64.7 64.7" enable-background="new 0 0 64.7 64.7" xml:space="preserve">
<circle fill="#3FB6CB" cx="32.3" cy="32.3" r="32.3"/>
<path fill="#FFFFFF" d="M13.8,38.8c-0.2-0.6,20.4,19.1,33.7-5.9c0.3-0.5,0.4-0.5,1-0.6c1.2-0.1,2,0.2,2.1,0c0.1-0.2-0.1-1,0-1
	c0.4,0-3,0.1-3,0c-0.1-0.3-0.1-0.7,0-0.9c0.1-0.3,2.9,0.1,3-0.1c0-0.5,0-1,0-1l-3,0c-0.1,0.4-1.1-5.9-5.8-7.1
	c-3.8-0.9-0.7-0.9-0.7-0.9l-1.7-0.2l0.2-1.9l-2.3,0.7c0,0-4.8,5.8-4.8,8.3c0,0.9-2.9-1.2-2.9-1.2l-10.8-5.1l3.8,5.3l-1.8,0.4
	l3.6,3.5l-1.7,0.7l3.2,2.5L25.3,37l2.2,1C27.1,38.4,21.6,43.9,13.8,38.8z"/>
</svg>
