<?xml version="1.0" encoding="utf-8"?>
<!-- Generator: Adobe Illustrator 18.0.0, SVG Export Plug-In . SVG Version: 6.00 Build 0)  -->
<!DOCTYPE svg PUBLIC "-//W3C//DTD SVG 1.1//EN" "http://www.w3.org/Graphics/SVG/1.1/DTD/svg11.dtd">
<svg version="1.1" id="Camada_1" xmlns="http://www.w3.org/2000/svg" xmlns:xlink="http://www.w3.org/1999/xlink" x="0px" y="0px"
	 viewBox="0 0 162.5 66.7" enable-background="new 0 0 162.5 66.7" xml:space="preserve">
<g>
	<path fill-rule="evenodd" clip-rule="evenodd" fill="#0B1761" d="M133.1,58.3c-2.9-0.8-5.2-2.6-6.4-5.6c-2.8-6.9,1.4-16.9,9.5-22.4
		c5.7-3.8,11.7-4.5,15.8-2.1c-3.9-1-8.8-0.1-13.5,3.1c-8.1,5.5-12.4,15.6-9.5,22.4C130,55.8,131.4,57.3,133.1,58.3L133.1,58.3z"/>
	<path fill="none" stroke="#0B1761" stroke-width="3.6333" stroke-miterlimit="22.9256" d="M21.9,20.5c-0.9,0.6-2.6,1-5.1,1.4
		c-0.3,0.1-0.5,0.1-0.7,0.1c-2.6,0.3-4.3,0.8-5.1,1.2c-0.7,0.5-1.2,1.3-1.3,2.3c-0.1,1.1,0.1,2,0.7,2.6c0.6,0.7,1.4,1,2.6,1
		c2.3,0,4.3-0.7,5.9-2.1c1.6-1.4,2.6-3.3,2.9-5.5c0-0.3,0.1-0.5,0.1-0.6C21.9,20.7,21.9,20.6,21.9,20.5L21.9,20.5z M27.4,29.5
		c-0.1,1.1-0.2,2-0.1,2.6c0.1,0.6,0.3,1,0.6,1.4l-0.1,0.6l-7.6,0l0.1-3.1c-1.4,1.4-2.9,2.4-4.4,3.1c-1.6,0.7-3.4,1-5.3,1
		c-3,0-5.3-0.8-6.9-2.5c-1.5-1.7-2.1-4-1.7-6.9c0.4-2.7,1.4-4.7,3.2-6c1.7-1.3,4.6-2.2,8.5-2.6c0.5-0.1,1.2-0.1,2.1-0.2
		c4.5-0.4,6.8-1.5,7.1-3.3c0.1-1.1-0.2-1.9-1-2.4c-0.8-0.5-2-0.8-3.7-0.8c-1.7,0-3,0.4-3.9,1.1c-0.9,0.8-1.5,1.9-1.7,3.6l-7.2,0
		l0-0.1c0.4-3.3,1.8-5.9,4.2-7.6c2.4-1.7,5.6-2.6,9.7-2.6c2,0,3.7,0.3,5.2,0.8c1.5,0.5,2.7,1.2,3.6,2.2c0.7,0.8,1.1,1.7,1.3,2.9
		c0.2,1.2,0.1,2.9-0.2,5.3L27.4,29.5L27.4,29.5z M53.4,19c0.3-2.3,0-4.1-1-5.5c-1-1.4-2.5-2-4.5-2c-2,0-3.7,0.7-5,2
		c-1.4,1.4-2.2,3.2-2.5,5.5c-0.3,2.3,0,4.1,1,5.5c1,1.4,2.5,2,4.5,2c2,0,3.7-0.7,5-2C52.2,23.1,53.1,21.3,53.4,19L53.4,19z M58.9,29
		c-0.4,3.3-0.9,5.6-1.5,7c-0.6,1.4-1.4,2.6-2.4,3.7c-1.5,1.5-3.1,2.6-5,3.3c-1.9,0.7-4.1,1-6.7,1c-3.9,0-6.8-0.8-8.5-2.3
		c-1.8-1.6-2.5-3.9-2.1-7l0.1-0.5h6.9c-0.2,1.2,0.1,2.1,0.9,2.7c0.7,0.6,2,0.9,3.6,0.9c2.5,0,4.3-0.5,5.4-1.4c1.1-0.9,1.8-2.6,2.1-5
		l0.2-1.9c-1.1,1.1-2.3,2-3.6,2.6c-1.3,0.6-2.8,0.8-4.5,0.8c-3.8,0-6.7-1.3-8.7-3.8c-2-2.6-2.7-5.9-2.2-10.1c0.5-4.1,2.1-7.4,4.8-10
		C40.5,6.3,43.7,5,47.4,5c1.7,0,3.2,0.3,4.4,0.8c1.2,0.5,2.2,1.4,3,2.5l0.3-2.6h6.9L58.9,29L58.9,29z M71.7,20c-0.3,2.5,0,4.5,1,6
		c1,1.5,2.5,2.2,4.5,2.2c2,0,3.7-0.7,5-2.2c1.4-1.5,2.2-3.5,2.6-6c0.3-2.5,0-4.5-1-6c-1-1.5-2.5-2.2-4.5-2.2c-2,0-3.7,0.7-5.1,2.2
		C72.9,15.5,72.1,17.5,71.7,20L71.7,20z M64.3,19.9c0.6-4.7,2.3-8.4,5.2-11.1c2.9-2.7,6.4-4,10.8-4c4.3,0,7.6,1.3,9.7,4
		c2.1,2.7,2.9,6.4,2.3,11.1c-0.6,4.7-2.3,8.4-5.2,11.1c-2.9,2.7-6.4,4.1-10.8,4.1c-4.3,0-7.6-1.4-9.7-4.1
		C64.5,28.3,63.7,24.6,64.3,19.9L64.3,19.9z M95,24.8l7.2,0c-0.1,1.4,0.3,2.4,1.2,3.1c0.9,0.6,2.4,0.9,4.5,0.9
		c1.4,0,2.6-0.3,3.5-0.8c0.9-0.5,1.4-1.2,1.6-2c0.1-0.7-0.1-1.3-0.5-1.6c-0.4-0.3-1.4-0.6-3-0.7l-6.1-0.7c-2.3-0.3-4-1.2-5.1-2.7
		c-1.1-1.6-1.5-3.5-1.2-5.9c0.4-3.1,1.8-5.5,4-7.1c2.3-1.7,5.4-2.5,9.3-2.5c3.7,0,6.5,0.8,8.4,2.4c1.9,1.6,2.6,3.9,2.3,6.7l0,0.3
		l-6.9,0c0-1.2-0.4-2.2-1.2-2.8c-0.8-0.6-2-0.9-3.7-0.9c-1.4,0-2.5,0.2-3.4,0.7c-0.8,0.5-1.3,1.1-1.4,1.9c-0.1,0.8,0.2,1.4,0.9,1.8
		c0.7,0.4,2,0.7,3.8,0.9l4.7,0.5c2.3,0.2,4.1,1.1,5.2,2.5c1.1,1.5,1.5,3.4,1.1,5.9c-0.4,3.4-1.8,6-4.2,7.7c-2.3,1.8-5.5,2.6-9.6,2.6
		c-4.1,0-7.1-0.9-9.1-2.6C95.5,30.8,94.7,28.2,95,24.8L95,24.8z"/>
	<path fill-rule="evenodd" clip-rule="evenodd" fill="#FFFF00" d="M21.9,20.5c-0.9,0.6-2.6,1-5.1,1.4c-0.3,0.1-0.5,0.1-0.7,0.1
		c-2.6,0.3-4.3,0.8-5.1,1.2c-0.7,0.5-1.2,1.3-1.3,2.3c-0.1,1.1,0.1,2,0.7,2.6c0.6,0.7,1.4,1,2.6,1c2.3,0,4.3-0.7,5.9-2.1
		c1.6-1.4,2.6-3.3,2.9-5.5c0-0.3,0.1-0.5,0.1-0.6C21.9,20.7,21.9,20.6,21.9,20.5L21.9,20.5z M27.4,29.5c-0.1,1.1-0.2,2-0.1,2.6
		c0.1,0.6,0.3,1,0.6,1.4l-0.1,0.6h-7.6l0.1-3.1c-1.4,1.4-2.9,2.4-4.4,3.1c-1.6,0.7-3.4,1-5.3,1c-3,0-5.3-0.8-6.9-2.5
		c-1.5-1.7-2.1-4-1.7-6.9c0.4-2.7,1.4-4.7,3.2-6c1.7-1.3,4.6-2.2,8.5-2.6c0.5-0.1,1.2-0.1,2.1-0.2c4.5-0.4,6.8-1.5,7.1-3.3
		c0.1-1.1-0.2-1.9-1-2.4c-0.8-0.5-2-0.8-3.7-0.8c-1.7,0-3,0.4-3.9,1.1c-0.9,0.8-1.5,1.9-1.7,3.6l-7.2,0l0-0.1
		c0.4-3.3,1.8-5.9,4.2-7.6c2.4-1.7,5.6-2.6,9.7-2.6c2,0,3.7,0.3,5.2,0.8c1.5,0.5,2.7,1.2,3.6,2.2c0.7,0.8,1.1,1.7,1.3,2.9
		c0.2,1.2,0.1,2.9-0.2,5.3L27.4,29.5L27.4,29.5z M53.4,19c0.3-2.3,0-4.1-1-5.5c-1-1.4-2.5-2-4.5-2c-2,0-3.7,0.7-5,2
		c-1.4,1.4-2.2,3.2-2.5,5.5c-0.3,2.3,0,4.1,1,5.5c1,1.4,2.5,2,4.5,2c2,0,3.7-0.7,5-2C52.2,23.1,53.1,21.3,53.4,19L53.4,19z M58.9,29
		c-0.4,3.3-0.9,5.6-1.5,7c-0.6,1.4-1.4,2.6-2.4,3.7c-1.5,1.5-3.1,2.6-5,3.3c-1.9,0.7-4.1,1-6.7,1c-3.9,0-6.8-0.8-8.5-2.3
		c-1.8-1.6-2.5-3.9-2.1-7l0.1-0.5h6.9c-0.2,1.2,0.1,2.1,0.9,2.7c0.7,0.6,2,0.9,3.6,0.9c2.5,0,4.3-0.5,5.4-1.4c1.1-0.9,1.8-2.6,2.1-5
		l0.2-1.9c-1.1,1.1-2.3,2-3.6,2.6c-1.3,0.6-2.8,0.8-4.5,0.8c-3.8,0-6.7-1.3-8.7-3.8c-2-2.6-2.7-5.9-2.2-10.1c0.5-4.1,2.1-7.4,4.8-10
		C40.5,6.3,43.7,5,47.4,5c1.7,0,3.2,0.3,4.4,0.8c1.2,0.5,2.2,1.4,3,2.5l0.3-2.6H62L58.9,29L58.9,29z M71.7,20c-0.3,2.5,0,4.5,1,6
		c1,1.5,2.5,2.2,4.5,2.2c2,0,3.7-0.7,5-2.2c1.4-1.5,2.2-3.5,2.6-6c0.3-2.5,0-4.5-1-6c-1-1.5-2.5-2.2-4.5-2.2c-2,0-3.7,0.7-5.1,2.2
		C72.9,15.5,72.1,17.5,71.7,20L71.7,20z M64.3,19.9c0.6-4.7,2.3-8.4,5.2-11.1c2.9-2.7,6.4-4,10.8-4c4.3,0,7.6,1.3,9.7,4
		c2.1,2.7,2.9,6.4,2.3,11.1c-0.6,4.7-2.3,8.4-5.2,11.1c-2.9,2.7-6.4,4.1-10.8,4.1c-4.3,0-7.6-1.4-9.7-4.1
		C64.5,28.3,63.7,24.6,64.3,19.9L64.3,19.9z M95,24.8h7.2c-0.1,1.4,0.3,2.4,1.2,3.1c0.9,0.6,2.4,0.9,4.5,0.9c1.4,0,2.6-0.3,3.5-0.8
		c0.9-0.5,1.4-1.2,1.6-2c0.1-0.7-0.1-1.3-0.5-1.6c-0.4-0.3-1.4-0.6-3-0.7l-6.1-0.7c-2.3-0.3-4-1.2-5.1-2.7c-1.1-1.6-1.5-3.5-1.2-5.9
		c0.4-3.1,1.8-5.5,4-7.1c2.3-1.7,5.4-2.5,9.3-2.5c3.7,0,6.5,0.8,8.4,2.4c1.9,1.6,2.6,3.9,2.3,6.7l0,0.3h-6.9c0-1.2-0.4-2.2-1.2-2.8
		c-0.8-0.6-2-0.9-3.7-0.9c-1.4,0-2.5,0.2-3.4,0.7c-0.8,0.5-1.3,1.1-1.4,1.9c-0.1,0.8,0.2,1.4,0.9,1.8c0.7,0.4,2,0.7,3.8,0.9l4.7,0.5
		c2.3,0.2,4.1,1.1,5.2,2.5c1.1,1.5,1.5,3.4,1.1,5.9c-0.4,3.4-1.8,6-4.2,7.7c-2.3,1.8-5.5,2.6-9.6,2.6c-4.1,0-7.1-0.9-9.1-2.6
		C95.5,30.8,94.7,28.2,95,24.8L95,24.8z"/>
	<path fill-rule="evenodd" clip-rule="evenodd" fill="#0B1761" d="M3,54.8h1.2L3.8,53L3,54.8L3,54.8z M0.7,57.1l2.8-5.7h1.1l1.3,5.7
		H4.7l-0.2-1.2h-2l-0.6,1.2H0.7L0.7,57.1z M6.3,55.1h1.1l0,0.1c0,0.3,0,0.6,0.2,0.7c0.2,0.2,0.5,0.3,0.9,0.3c0.3,0,0.6-0.1,0.8-0.2
		c0.2-0.1,0.3-0.3,0.3-0.5c0-0.2,0-0.3-0.1-0.4c-0.1-0.1-0.3-0.2-0.7-0.2l-0.8-0.1c-0.6-0.1-1-0.2-1.2-0.5c-0.2-0.3-0.3-0.6-0.3-1.1
		c0.1-0.6,0.3-1,0.8-1.4c0.4-0.4,1-0.5,1.6-0.5c0.7,0,1.2,0.2,1.6,0.5c0.3,0.3,0.5,0.8,0.4,1.4l0,0H9.9c0-0.3-0.1-0.5-0.2-0.6
		c-0.2-0.1-0.4-0.2-0.8-0.2c-0.3,0-0.6,0.1-0.7,0.2C8,52.6,7.9,52.8,7.8,53c0,0.2,0,0.3,0.1,0.4c0.1,0.1,0.3,0.1,0.7,0.2l0.8,0.1
		c0.6,0.1,1,0.3,1.2,0.5c0.2,0.3,0.3,0.7,0.3,1.1c-0.1,0.6-0.3,1.1-0.8,1.4c-0.4,0.3-1.1,0.5-1.8,0.5c-0.7,0-1.3-0.2-1.6-0.5
		c-0.4-0.3-0.5-0.8-0.4-1.5L6.3,55.1L6.3,55.1z M11.6,55.1h1.1l0,0.1c0,0.3,0,0.6,0.2,0.7c0.2,0.2,0.5,0.3,0.9,0.3
		c0.3,0,0.6-0.1,0.8-0.2c0.2-0.1,0.3-0.3,0.3-0.5c0-0.2,0-0.3-0.1-0.4c-0.1-0.1-0.3-0.2-0.7-0.2l-0.8-0.1c-0.6-0.1-1-0.2-1.2-0.5
		c-0.2-0.3-0.3-0.6-0.3-1.1c0.1-0.6,0.3-1,0.8-1.4c0.4-0.4,1-0.5,1.6-0.5c0.7,0,1.2,0.2,1.6,0.5c0.3,0.3,0.5,0.8,0.4,1.4l0,0h-1.1
		c0-0.3-0.1-0.5-0.2-0.6c-0.2-0.1-0.4-0.2-0.8-0.2c-0.3,0-0.6,0.1-0.7,0.2c-0.2,0.1-0.3,0.3-0.3,0.5c0,0.2,0,0.3,0.1,0.4
		c0.1,0.1,0.3,0.1,0.7,0.2l0.8,0.1c0.6,0.1,1,0.3,1.2,0.5c0.2,0.3,0.3,0.7,0.3,1.1c-0.1,0.6-0.3,1.1-0.8,1.4
		c-0.4,0.3-1.1,0.5-1.8,0.5c-0.7,0-1.3-0.2-1.6-0.5c-0.4-0.3-0.5-0.8-0.4-1.5L11.6,55.1L11.6,55.1z M19.3,56.1
		c0.4,0,0.8-0.2,1.1-0.5c0.3-0.3,0.5-0.8,0.6-1.3c0.1-0.6,0-1-0.2-1.3c-0.2-0.3-0.5-0.5-1-0.5c-0.4,0-0.8,0.2-1.1,0.5
		c-0.3,0.3-0.5,0.8-0.6,1.3c-0.1,0.6,0,1,0.2,1.3C18.5,55.9,18.9,56.1,19.3,56.1L19.3,56.1z M16.9,54.3c0.1-0.9,0.5-1.6,1-2.2
		c0.6-0.5,1.2-0.8,2-0.8c0.8,0,1.4,0.3,1.8,0.8c0.4,0.5,0.6,1.3,0.4,2.2c-0.1,0.9-0.5,1.6-1,2.2c-0.6,0.5-1.2,0.8-2,0.8
		s-1.4-0.3-1.8-0.8C16.9,55.9,16.8,55.2,16.9,54.3L16.9,54.3z M27.9,54.9c-0.2,0.7-0.5,1.3-1,1.7c-0.5,0.4-1.1,0.6-1.9,0.6
		c-0.8,0-1.4-0.3-1.8-0.8c-0.4-0.5-0.6-1.3-0.4-2.2c0.1-0.9,0.5-1.6,1-2.2c0.6-0.5,1.2-0.8,2-0.8c0.7,0,1.3,0.2,1.7,0.6
		c0.4,0.4,0.6,0.9,0.6,1.6h-1.2c0-0.3-0.1-0.6-0.3-0.8c-0.2-0.2-0.5-0.3-0.8-0.3c-0.4,0-0.8,0.2-1.1,0.5c-0.3,0.3-0.5,0.8-0.6,1.3
		c-0.1,0.6,0,1,0.2,1.3c0.2,0.3,0.5,0.5,1,0.5c0.4,0,0.7-0.1,1-0.3c0.3-0.2,0.4-0.5,0.5-0.9H27.9L27.9,54.9z M28.3,57.1l0.7-5.7h1.1
		l-0.7,5.7H28.3L28.3,57.1z M32,54.8h1.2L32.8,53L32,54.8L32,54.8z M29.7,57.1l2.8-5.7h1.1l1.3,5.7h-1.2l-0.2-1.2h-2l-0.6,1.2H29.7
		L29.7,57.1z M40.5,54.9c-0.2,0.7-0.5,1.3-1,1.7c-0.5,0.4-1.1,0.6-1.9,0.6c-0.8,0-1.4-0.3-1.8-0.8c-0.4-0.5-0.6-1.3-0.4-2.2
		c0.1-0.9,0.5-1.6,1-2.2c0.6-0.5,1.2-0.8,2-0.8c0.7,0,1.3,0.2,1.7,0.6c0.4,0.4,0.6,0.9,0.6,1.6h-1.2c0-0.3-0.1-0.6-0.3-0.8
		c-0.2-0.2-0.5-0.3-0.8-0.3c-0.4,0-0.8,0.2-1.1,0.5c-0.3,0.3-0.5,0.8-0.6,1.3c-0.1,0.6,0,1,0.2,1.3c0.2,0.3,0.5,0.5,1,0.5
		c0.4,0,0.7-0.1,1-0.3c0.3-0.2,0.4-0.5,0.5-0.9H40.5L40.5,54.9z M36.5,58.7l0.2-0.4c0.1,0,0.3,0.1,0.4,0.1c0.1,0,0.2,0,0.3,0
		c0.1,0,0.2,0,0.2-0.1c0.1,0,0.1-0.1,0.1-0.2c0-0.1,0-0.1,0-0.2c0,0-0.1-0.1-0.2-0.1c0,0-0.1,0-0.1,0c0,0-0.1,0-0.1,0l-0.2-0.2
		l0.4-0.7h0.4l-0.3,0.5c0,0,0.1,0,0.1,0c0,0,0.1,0,0.1,0c0.2,0,0.3,0.1,0.4,0.2c0.1,0.1,0.1,0.3,0.1,0.5c0,0.2-0.1,0.4-0.3,0.5
		c-0.1,0.1-0.4,0.2-0.6,0.2c-0.1,0-0.3,0-0.4-0.1C36.8,58.8,36.7,58.8,36.5,58.7L36.5,58.7z M42.5,54.8h1.2L43.3,53L42.5,54.8
		L42.5,54.8z M40.2,57.1l2.8-5.7h1.1l1.3,5.7h-1.2l-0.2-1.2h-2l-0.6,1.2H40.2L40.2,57.1z M42.3,50.8L42.3,50.8
		c0.1-0.4,0.2-0.7,0.3-0.9c0.2-0.2,0.4-0.3,0.6-0.3c0.1,0,0.3,0,0.5,0.1c0.2,0.1,0.3,0.1,0.4,0.1c0.1,0,0.1,0,0.2-0.1
		c0,0,0.1-0.1,0.1-0.2l0.7,0l0,0.1c0,0.3-0.1,0.6-0.3,0.8c-0.2,0.2-0.4,0.3-0.6,0.3c-0.1,0-0.3,0-0.5-0.1c-0.2-0.1-0.3-0.1-0.4-0.1
		c-0.1,0-0.1,0-0.2,0.1c0,0-0.1,0.1-0.1,0.2H42.3L42.3,50.8z M48.3,56.1c0.4,0,0.8-0.2,1.1-0.5c0.3-0.3,0.5-0.8,0.6-1.3
		c0.1-0.6,0-1-0.2-1.3c-0.2-0.3-0.5-0.5-1-0.5c-0.4,0-0.8,0.2-1.1,0.5c-0.3,0.3-0.5,0.8-0.6,1.3c-0.1,0.6,0,1,0.2,1.3
		C47.5,55.9,47.8,56.1,48.3,56.1L48.3,56.1z M45.8,54.3c0.1-0.9,0.5-1.6,1-2.2c0.6-0.5,1.2-0.8,2-0.8c0.8,0,1.4,0.3,1.8,0.8
		c0.4,0.5,0.6,1.3,0.4,2.2c-0.1,0.9-0.5,1.6-1,2.2c-0.6,0.5-1.2,0.8-2,0.8c-0.8,0-1.4-0.3-1.8-0.8C45.9,55.9,45.7,55.2,45.8,54.3
		L45.8,54.3z M57.9,56.5c-0.2,0.3-0.5,0.5-0.8,0.6c-0.3,0.1-0.6,0.2-0.9,0.2c-0.3,0-0.7-0.1-0.9-0.2c-0.3-0.1-0.5-0.3-0.7-0.5
		c-0.2-0.3-0.4-0.6-0.5-1c-0.1-0.4-0.1-0.8,0-1.3c0.1-0.9,0.5-1.6,1-2.2c0.6-0.5,1.2-0.8,2-0.8c0.7,0,1.2,0.2,1.6,0.6
		c0.4,0.4,0.6,0.9,0.6,1.5H58c-0.1-0.3-0.2-0.6-0.4-0.7c-0.2-0.2-0.5-0.2-0.8-0.2c-0.4,0-0.8,0.2-1.1,0.5c-0.3,0.3-0.5,0.8-0.6,1.3
		c-0.1,0.6,0,1,0.2,1.3c0.2,0.3,0.5,0.5,1,0.5c0.3,0,0.6-0.1,0.8-0.2c0.3-0.2,0.4-0.4,0.6-0.7h-1l0.1-1.1h2.2l-0.4,3.1h-0.8
		L57.9,56.5L57.9,56.5z M62.2,56.1c0.4,0,0.8-0.2,1.1-0.5c0.3-0.3,0.5-0.8,0.6-1.3c0.1-0.6,0-1-0.2-1.3c-0.2-0.3-0.5-0.5-1-0.5
		c-0.4,0-0.8,0.2-1.1,0.5c-0.3,0.3-0.5,0.8-0.6,1.3c-0.1,0.6,0,1,0.2,1.3C61.4,55.9,61.8,56.1,62.2,56.1L62.2,56.1z M59.8,54.3
		c0.1-0.9,0.5-1.6,1-2.2c0.6-0.5,1.2-0.8,2-0.8s1.4,0.3,1.8,0.8c0.4,0.5,0.6,1.3,0.4,2.2c-0.1,0.9-0.5,1.6-1,2.2
		c-0.6,0.5-1.2,0.8-2,0.8c-0.8,0-1.4-0.3-1.8-0.8C59.8,55.9,59.7,55.2,59.8,54.3L59.8,54.3z M65.5,57.1l0.7-5.7h1.1l-0.7,5.7H65.5
		L65.5,57.1z M69.2,54.8h1.2L70,53L69.2,54.8L69.2,54.8z M66.9,57.1l2.8-5.7h1.1l1.3,5.7h-1.2l-0.2-1.2h-2l-0.6,1.2H66.9L66.9,57.1z
		 M72.4,57.1l0.7-5.7h1.4l1.7,4l0.5-4h1.1l-0.7,5.7h-1.3L74,53.1l-0.5,4.1H72.4L72.4,57.1z M79.6,54.8h1.2L80.4,53L79.6,54.8
		L79.6,54.8z M77.3,57.1l2.8-5.7h1.1l1.3,5.7h-1.2l-0.2-1.2h-2l-0.6,1.2H77.3L77.3,57.1z M2,62l-0.4,3.4h0.9c0.5,0,0.9-0.1,1.2-0.4
		c0.3-0.3,0.5-0.7,0.6-1.3c0.1-0.6,0-1-0.2-1.3C3.7,62.1,3.4,62,2.8,62H2L2,62z M3,60.8c0.5,0,0.8,0,1.1,0.1
		c0.2,0.1,0.4,0.2,0.6,0.3c0.3,0.2,0.5,0.6,0.6,1c0.1,0.4,0.1,0.9,0.1,1.5c-0.1,0.6-0.2,1.1-0.5,1.5c-0.2,0.4-0.5,0.8-0.9,1
		c-0.2,0.1-0.4,0.2-0.7,0.3c-0.2,0.1-0.6,0.1-1.1,0.1h-2L1,60.8H3L3,60.8z M5.7,66.5l0.7-5.7h3.9L10.3,62H7.4l-0.1,1h2.5l-0.2,1.2
		H7.2L7,65.3h2.8l-0.2,1.2H5.7L5.7,66.5z M12.7,64.6h1.1l0,0.1c0,0.3,0,0.6,0.2,0.7c0.2,0.2,0.5,0.3,0.9,0.3c0.3,0,0.6-0.1,0.8-0.2
		c0.2-0.1,0.3-0.3,0.3-0.5c0-0.2,0-0.3-0.1-0.4c-0.1-0.1-0.3-0.2-0.7-0.2l-0.8-0.1c-0.6-0.1-1-0.2-1.2-0.5c-0.2-0.3-0.3-0.6-0.3-1.1
		c0.1-0.6,0.3-1,0.8-1.4c0.4-0.4,1-0.5,1.6-0.5c0.7,0,1.2,0.2,1.6,0.5c0.3,0.3,0.5,0.8,0.4,1.4l0,0h-1.1c0-0.3-0.1-0.5-0.2-0.6
		c-0.2-0.1-0.4-0.2-0.8-0.2c-0.3,0-0.6,0.1-0.7,0.2c-0.2,0.1-0.3,0.3-0.3,0.5c0,0.2,0,0.3,0.1,0.4c0.1,0.1,0.3,0.1,0.7,0.2l0.8,0.1
		c0.6,0.1,1,0.3,1.2,0.5c0.2,0.3,0.3,0.7,0.3,1.1c-0.1,0.6-0.3,1.1-0.8,1.4c-0.4,0.3-1.1,0.5-1.8,0.5c-0.7,0-1.3-0.2-1.6-0.5
		c-0.4-0.3-0.5-0.8-0.4-1.5L12.7,64.6L12.7,64.6z M19.8,60.8l-0.4,3.1c-0.1,0.6,0,1,0.1,1.2c0.1,0.3,0.4,0.4,0.8,0.4
		c0.2,0,0.4,0,0.6-0.1c0.2-0.1,0.3-0.2,0.4-0.4c0.1-0.1,0.2-0.3,0.2-0.4c0.1-0.2,0.1-0.4,0.1-0.7l0.4-3.1h1.1l-0.4,3.2
		c-0.1,0.9-0.4,1.5-0.8,2c-0.4,0.4-1,0.7-1.8,0.7c-0.7,0-1.3-0.2-1.6-0.7c-0.3-0.4-0.4-1.1-0.3-2l0.4-3.2H19.8L19.8,60.8z
		 M24.9,63.6h1c0.4,0,0.6-0.1,0.8-0.2c0.2-0.1,0.3-0.3,0.3-0.6c0-0.3,0-0.5-0.1-0.6c-0.1-0.1-0.4-0.2-0.7-0.2h-1.1L24.9,63.6
		L24.9,63.6z M23.5,66.5l0.7-5.7h2.6c0.5,0,0.9,0.2,1.1,0.5c0.2,0.3,0.3,0.8,0.2,1.4c-0.1,0.6-0.3,1.1-0.6,1.4
		c-0.3,0.3-0.8,0.5-1.3,0.5h-1.5l-0.2,1.8H23.5L23.5,66.5z M28.4,66.5l0.7-5.7h3.9L32.9,62h-2.8L30,63h2.5l-0.2,1.2h-2.5l-0.2,1.2
		h2.8l-0.2,1.2H28.4L28.4,66.5z M34.6,63.3h1.3c0.3,0,0.6-0.1,0.7-0.2c0.1-0.1,0.2-0.3,0.3-0.5c0-0.2,0-0.4-0.1-0.5
		C36.6,62,36.4,62,36,62h-1.2L34.6,63.3L34.6,63.3z M33.1,66.5l0.7-5.7h2.7c0.6,0,1,0.1,1.3,0.4c0.2,0.3,0.3,0.6,0.3,1.2
		c0,0.3-0.1,0.6-0.3,0.9c-0.2,0.3-0.4,0.4-0.6,0.6c0.2,0.1,0.3,0.2,0.4,0.4c0.1,0.2,0.1,0.4,0,0.8c0,0,0,0.1,0,0.2
		c-0.1,0.7,0,1.2,0.1,1.4h-1.2c0-0.1,0-0.1,0-0.2c0-0.1,0-0.2,0-0.2l0.1-0.4c0.1-0.5,0.1-0.9,0-1c-0.1-0.2-0.3-0.2-0.6-0.2h-1.3
		l-0.3,2.1H33.1L33.1,66.5z M38.3,66.5l0.7-5.7h1.4l0.9,4.1l2-4.1h1.4l-0.7,5.7H43l0.5-3.8l-1.9,3.8h-0.9l-0.8-3.9l-0.5,3.9H38.3
		L38.3,66.5z M45.1,66.5l0.7-5.7h3.9L49.6,62h-2.8l-0.1,1h2.5L49,64.1h-2.5l-0.2,1.2h2.8L49,66.5H45.1L45.1,66.5z M51.3,63.3h1.3
		c0.3,0,0.6-0.1,0.7-0.2c0.1-0.1,0.2-0.3,0.3-0.5c0-0.2,0-0.4-0.1-0.5C53.3,62,53,62,52.7,62h-1.2L51.3,63.3L51.3,63.3z M49.7,66.5
		l0.7-5.7h2.7c0.6,0,1,0.1,1.3,0.4c0.2,0.3,0.3,0.6,0.3,1.2c0,0.3-0.1,0.6-0.3,0.9c-0.2,0.3-0.4,0.4-0.6,0.6
		c0.2,0.1,0.3,0.2,0.4,0.4c0.1,0.2,0.1,0.4,0,0.8c0,0,0,0.1,0,0.2c-0.1,0.7,0,1.2,0.1,1.4H53c0-0.1,0-0.1,0-0.2c0-0.1,0-0.2,0-0.2
		l0.1-0.4c0.1-0.5,0.1-0.9,0-1c-0.1-0.2-0.3-0.2-0.6-0.2h-1.3l-0.3,2.1H49.7L49.7,66.5z M60.3,64.3c-0.2,0.7-0.5,1.3-1,1.7
		c-0.5,0.4-1.1,0.6-1.9,0.6c-0.8,0-1.4-0.3-1.8-0.8c-0.4-0.5-0.6-1.3-0.4-2.2c0.1-0.9,0.5-1.6,1-2.2c0.6-0.5,1.2-0.8,2-0.8
		c0.7,0,1.3,0.2,1.7,0.6c0.4,0.4,0.6,0.9,0.6,1.6h-1.2c0-0.3-0.1-0.6-0.3-0.8c-0.2-0.2-0.5-0.3-0.8-0.3c-0.4,0-0.8,0.2-1.1,0.5
		c-0.3,0.3-0.5,0.8-0.6,1.3c-0.1,0.6,0,1,0.2,1.3c0.2,0.3,0.5,0.5,1,0.5c0.4,0,0.7-0.1,1-0.3c0.3-0.2,0.4-0.5,0.5-0.9H60.3
		L60.3,64.3z M62.3,64.2h1.2l-0.4-1.8L62.3,64.2L62.3,64.2z M60,66.5l2.8-5.7h1.1l1.3,5.7H64l-0.2-1.2h-2l-0.6,1.2H60L60,66.5z
		 M67.2,62l-0.4,3.4h0.9c0.5,0,0.9-0.1,1.2-0.4c0.3-0.3,0.5-0.7,0.6-1.3c0.1-0.6,0-1-0.2-1.3C69,62.1,68.6,62,68.1,62H67.2L67.2,62z
		 M68.2,60.8c0.5,0,0.8,0,1.1,0.1c0.2,0.1,0.4,0.2,0.6,0.3c0.3,0.2,0.5,0.6,0.6,1c0.1,0.4,0.1,0.9,0.1,1.5c-0.1,0.6-0.2,1.1-0.5,1.5
		c-0.2,0.4-0.5,0.8-0.9,1c-0.2,0.1-0.4,0.2-0.7,0.3c-0.2,0.1-0.6,0.1-1.1,0.1h-2l0.7-5.7H68.2L68.2,60.8z M73.5,65.5
		c0.4,0,0.8-0.2,1.1-0.5c0.3-0.3,0.5-0.8,0.6-1.3c0.1-0.6,0-1-0.2-1.3c-0.2-0.3-0.5-0.5-1-0.5c-0.4,0-0.8,0.2-1.1,0.5
		c-0.3,0.3-0.5,0.8-0.6,1.3c-0.1,0.6,0,1,0.2,1.3C72.8,65.4,73.1,65.5,73.5,65.5L73.5,65.5z M71.1,63.7c0.1-0.9,0.5-1.6,1-2.2
		c0.6-0.5,1.2-0.8,2-0.8c0.8,0,1.4,0.3,1.8,0.8c0.4,0.5,0.6,1.3,0.4,2.2c-0.1,0.9-0.5,1.6-1,2.2c-0.6,0.5-1.2,0.8-2,0.8
		c-0.8,0-1.4-0.3-1.8-0.8C71.1,65.3,71,64.6,71.1,63.7L71.1,63.7z M76.9,64.6H78l0,0.1c0,0.3,0,0.6,0.2,0.7c0.2,0.2,0.5,0.3,0.9,0.3
		c0.3,0,0.6-0.1,0.8-0.2c0.2-0.1,0.3-0.3,0.3-0.5c0-0.2,0-0.3-0.1-0.4c-0.1-0.1-0.3-0.2-0.7-0.2l-0.8-0.1c-0.6-0.1-1-0.2-1.2-0.5
		c-0.2-0.3-0.3-0.6-0.3-1.1c0.1-0.6,0.3-1,0.8-1.4c0.4-0.4,1-0.5,1.6-0.5c0.7,0,1.2,0.2,1.6,0.5c0.3,0.3,0.5,0.8,0.4,1.4l0,0h-1.1
		c0-0.3-0.1-0.5-0.2-0.6c-0.2-0.1-0.4-0.2-0.8-0.2c-0.3,0-0.6,0.1-0.7,0.2c-0.2,0.1-0.3,0.3-0.3,0.5c0,0.2,0,0.3,0.1,0.4
		c0.1,0.1,0.3,0.1,0.7,0.2l0.8,0.1c0.6,0.1,1,0.3,1.2,0.5c0.2,0.3,0.3,0.7,0.3,1.1c-0.1,0.6-0.3,1.1-0.8,1.4
		c-0.4,0.3-1.1,0.5-1.8,0.5c-0.7,0-1.3-0.2-1.6-0.5c-0.4-0.3-0.5-0.8-0.4-1.5L76.9,64.6L76.9,64.6z"/>
	<path fill-rule="evenodd" clip-rule="evenodd" fill="#FFFF00" d="M132.7,57.7c-2.9-0.8-5.2-2.6-6.4-5.6c-2.8-6.9,1.4-16.9,9.5-22.4
		c5.7-3.8,11.7-4.5,15.8-2.1c-3.9-1-8.8-0.1-13.5,3.1c-8.1,5.5-12.4,15.6-9.5,22.4C129.6,55.2,131,56.7,132.7,57.7L132.7,57.7z"/>
	<path fill-rule="evenodd" clip-rule="evenodd" fill="#0B1761" d="M132.7,57.8c-4.5-1.2-8.2-4.2-10.1-8.8
		c-4.5-10.8,2.2-26.7,15-35.3c8.9-6.1,18.4-7,24.9-3.3c-6.1-1.6-13.9-0.1-21.2,4.9c-12.7,8.6-19.4,24.5-15,35.3
		C127.7,53.8,129.9,56.3,132.7,57.8L132.7,57.8z"/>
	<path fill-rule="evenodd" clip-rule="evenodd" fill="#0B1761" d="M100.5,58.1c1.8,0,3.5,1.9,3.8,4.1c0.3,2.3-0.9,4.1-2.6,4.1
		c-1.8,0-3.5-1.9-3.8-4.1C97.5,60,98.7,58.1,100.5,58.1L100.5,58.1z M100.7,59.4c1.2,0,2.4,1.3,2.6,2.8c0.2,1.6-0.6,2.8-1.8,2.8
		c-1.2,0-2.4-1.3-2.6-2.8C98.6,60.7,99.5,59.4,100.7,59.4L100.7,59.4z M114.8,58.1c1.8,0,3.5,1.9,3.8,4.1c0.3,2.3-0.9,4.1-2.6,4.1
		c-1.8,0-3.5-1.9-3.8-4.1C111.8,60,113,58.1,114.8,58.1L114.8,58.1z M114.9,59.4c1.2,0,2.4,1.3,2.6,2.8c0.2,1.6-0.6,2.8-1.8,2.8
		c-1.2,0-2.4-1.3-2.6-2.8C112.9,60.7,113.7,59.4,114.9,59.4L114.9,59.4z"/>
	<path fill-rule="evenodd" clip-rule="evenodd" fill="#0B1761" d="M95.9,45.1h21.9c0,0.2,0,0.5,0.1,0.7h-22V45.1L95.9,45.1z
		 M93.3,49.4h26.9c0,0,0,0,0,0c0.1,0.2,0.1,0.5,0.2,0.7H93.3V49.4L93.3,49.4z M91.2,53.7h32.3c0.2,0.3,0.4,0.5,0.6,0.7H91.2V53.7
		L91.2,53.7z"/>
</g>
</svg>
