<?xml version="1.0" encoding="utf-8"?>
<!-- Generator: Adobe Illustrator 18.0.0, SVG Export Plug-In . SVG Version: 6.00 Build 0)  -->
<!DOCTYPE svg PUBLIC "-//W3C//DTD SVG 1.1//EN" "http://www.w3.org/Graphics/SVG/1.1/DTD/svg11.dtd">
<svg version="1.1" id="Camada_1" xmlns="http://www.w3.org/2000/svg" xmlns:xlink="http://www.w3.org/1999/xlink" x="0px" y="0px"
	 viewBox="0 0 190.7 36.6" enable-background="new 0 0 190.7 36.6" xml:space="preserve">
<linearGradient id="SVGID_1_" gradientUnits="userSpaceOnUse" x1="95.0452" y1="35.0989" x2="95.0452" y2="0.4322">
	<stop  offset="5.940594e-002" style="stop-color:#2F518D"/>
	<stop  offset="0.3119" style="stop-color:#2F63A2"/>
</linearGradient>
<path fill="none" stroke="url(#SVGID_1_)" stroke-miterlimit="10" d="M174.6,34.6H15.5C7.6,34.6,1,28.1,1,20.1v-4.8
	c0-8,6.5-14.5,14.5-14.5h159.1c8,0,14.5,6.5,14.5,14.5v4.8C189,28.1,182.5,34.6,174.6,34.6z"/>
<linearGradient id="SVGID_2_" gradientUnits="userSpaceOnUse" x1="0.5452" y1="18.7655" x2="189.5452" y2="18.7655">
	<stop  offset="5.940594e-002" style="stop-color:#2F518D"/>
	<stop  offset="0.3119" style="stop-color:#555655"/>
</linearGradient>
<path opacity="0.15" fill="none" stroke="url(#SVGID_2_)" stroke-miterlimit="10" d="M174.6,35.6H15.5C7.6,35.6,1,29.1,1,21.1v-4.8
	c0-8,6.5-14.5,14.5-14.5h159.1c8,0,14.5,6.5,14.5,14.5v4.8C189,29.1,182.5,35.6,174.6,35.6z"/>
<g opacity="0.15">
	<path fill="#555655" d="M34.5,26.5l-6.1-13.4h5l3.7,9.4l3.7-9.4h5l-6.2,13.4H34.5z"/>
	<path fill="#555655" d="M57.8,22.5h4.7c-1.2,3-4,4.5-8.4,4.5c-2.8,0-4.9-0.6-6.4-1.7c-1.6-1.2-2.5-3.1-2.5-5.5
		c0-2.4,0.8-4.3,2.5-5.5c1.5-1.1,3.6-1.7,6.4-1.7c2.9,0,5,0.7,6.5,2.1c1.4,1.3,2.1,3.3,2.1,5.9v0.4H49.9v0c0,0.8,0.3,1.5,1,2.1
		c0.8,0.8,1.9,1.1,3.3,1.1C56,24.2,57.2,23.6,57.8,22.5z M49.9,18.3h8.4v0c0-0.6-0.3-1.2-0.9-1.8c-0.8-0.8-1.9-1.2-3.3-1.2
		c-1.5,0-2.6,0.5-3.4,1.4C50.1,17.3,49.9,17.8,49.9,18.3L49.9,18.3z"/>
	<path fill="#555655" d="M64.3,26V13.1h4.4v13.3c0,1.8-0.3,3.1-0.8,3.8c-0.7,0.9-2.1,1.3-4.1,1.3c-0.3,0-0.7,0-1.2,0
		c-0.6,0-1-0.1-1.1-0.1v-3.3c0.6,0.1,1,0.1,1.1,0.1c0.7,0,1.2-0.2,1.4-0.6C64.2,27.3,64.3,26.8,64.3,26z M64.3,11.4V8.3h4.4v3.1
		H64.3z"/>
	<path fill="#555655" d="M75.2,17.2H71c0.2-1.8,1.2-3.1,2.8-3.8c1.2-0.5,2.9-0.8,5.1-0.8c2.9,0,5,0.4,6.2,1.3c1,0.7,1.5,1.8,1.5,3.2
		v6.6c0,1.1,0.2,2,0.5,2.7h-4.4c-0.2-0.6-0.3-1-0.3-1.4C81.1,26.3,79,27,76.1,27c-4,0-6-1.5-6-4.3c0-2.5,1.9-3.9,5.6-4.1l4.7-0.3
		c0.7,0,1.2-0.2,1.4-0.3s0.4-0.5,0.4-1.1c0-1.1-1.2-1.6-3.5-1.6c-1,0-1.8,0.1-2.2,0.3C75.9,15.7,75.5,16.3,75.2,17.2z M82.3,21v-1.1
		c-0.6,0.3-1.5,0.5-2.6,0.6l-2.5,0.2c-0.8,0.1-1.4,0.2-1.8,0.5c-0.4,0.3-0.5,0.7-0.5,1.3s0.3,1,0.8,1.4c0.5,0.3,1.2,0.5,2,0.5
		c1.2,0,2.3-0.3,3.2-0.8C81.8,22.9,82.3,22.1,82.3,21z"/>
	<path fill="#555655" d="M118,26.5v-8c0-1.5-0.9-2.3-2.7-2.3c-1,0-1.8,0.3-2.4,0.8c-0.6,0.6-1,1.3-1,2.3v7.3h-4.4v-8
		c0-1.5-0.9-2.3-2.6-2.3c-1,0-1.8,0.3-2.4,0.8c-0.7,0.6-1,1.3-1,2.3v7.3h-4.4V13.1h4.3V15h0c0.4-0.6,1.1-1.1,2.1-1.6
		c1-0.5,2.2-0.7,3.4-0.7c2.3,0,3.9,0.8,4.6,2.5c1.3-1.7,3.1-2.5,5.5-2.5c1.5,0,2.8,0.3,3.7,1c1.1,0.8,1.7,2,1.7,3.6v9.1H118z"/>
	<path fill="#555655" d="M129,17.2h-4.3c0.2-1.8,1.2-3.1,2.8-3.8c1.2-0.5,2.9-0.8,5.1-0.8c2.9,0,5,0.4,6.2,1.3
		c1,0.7,1.5,1.8,1.5,3.2v6.6c0,1.1,0.2,2,0.5,2.7h-4.4c-0.2-0.6-0.3-1-0.3-1.4c-1.3,1.3-3.4,1.9-6.3,1.9c-4,0-6-1.5-6-4.3
		c0-2.5,1.9-3.9,5.6-4.1l4.7-0.3c0.7,0,1.2-0.2,1.4-0.3s0.4-0.5,0.4-1.1c0-1.1-1.2-1.6-3.5-1.6c-1,0-1.8,0.1-2.2,0.3
		C129.7,15.7,129.3,16.3,129,17.2z M136.1,21v-1.1c-0.6,0.3-1.5,0.5-2.6,0.6l-2.5,0.2c-0.8,0.1-1.4,0.2-1.8,0.5
		c-0.4,0.3-0.5,0.7-0.5,1.3s0.3,1,0.8,1.4c0.5,0.3,1.2,0.5,2,0.5c1.2,0,2.3-0.3,3.2-0.8C135.6,22.9,136.1,22.1,136.1,21z"/>
	<path fill="#555655" d="M142.5,11.4V8.3h4.4v3.1H142.5z M142.5,26.5V13.1h4.4v13.4H142.5z"/>
	<path fill="#555655" d="M148.3,22.3h4.9c0.2,1.3,1.3,1.9,3.3,1.9c2.1,0,3.2-0.5,3.2-1.5c0-0.4-0.2-0.7-0.5-0.9
		c-0.3-0.2-1-0.4-2-0.5l-4-0.5c-1.5-0.2-2.6-0.6-3.3-1.1c-0.8-0.6-1.2-1.5-1.2-2.7c0-3,2.4-4.5,7.3-4.5c2.8,0,4.9,0.4,6.2,1.3
		c1,0.7,1.6,1.8,1.8,3.2h-4.8c-0.2-1.2-1.2-1.8-3-1.8c-1.9,0-2.9,0.5-2.9,1.4c0,0.3,0.1,0.6,0.4,0.8c0.3,0.2,0.9,0.4,1.8,0.5l3,0.3
		c2.2,0.2,3.7,0.7,4.6,1.4c0.9,0.6,1.3,1.5,1.3,2.8c0,1.8-0.9,3-2.7,3.8c-1.3,0.5-3.2,0.8-5.6,0.8C151.2,27,148.5,25.4,148.3,22.3z"
		/>
</g>
<g>
	<linearGradient id="SVGID_3_" gradientUnits="userSpaceOnUse" x1="35.9523" y1="25.4605" x2="35.9523" y2="12.0611">
		<stop  offset="0.2327" style="stop-color:#2F518D"/>
		<stop  offset="0.8317" style="stop-color:#2F63A2"/>
	</linearGradient>
	<path fill="url(#SVGID_3_)" d="M33.5,25.5l-6.1-13.4h5l3.7,9.4l3.7-9.4h5l-6.2,13.4H33.5z"/>
	<linearGradient id="SVGID_4_" gradientUnits="userSpaceOnUse" x1="53.0268" y1="25.9605" x2="53.0268" y2="11.5606">
		<stop  offset="0.2327" style="stop-color:#2F518D"/>
		<stop  offset="0.8317" style="stop-color:#2F63A2"/>
	</linearGradient>
	<path fill="url(#SVGID_4_)" d="M56.8,21.5h4.7c-1.2,3-4,4.5-8.4,4.5c-2.8,0-4.9-0.6-6.4-1.7c-1.6-1.2-2.5-3.1-2.5-5.5
		c0-2.4,0.8-4.3,2.5-5.5c1.5-1.1,3.6-1.7,6.4-1.7c2.9,0,5,0.7,6.5,2.1c1.4,1.3,2.1,3.3,2.1,5.9v0.4H48.9v0c0,0.8,0.3,1.5,1,2.1
		c0.8,0.8,1.9,1.1,3.3,1.1C55,23.2,56.2,22.6,56.8,21.5z M48.9,17.3h8.4v0c0-0.6-0.3-1.2-0.9-1.8c-0.8-0.8-1.9-1.2-3.3-1.2
		c-1.5,0-2.6,0.5-3.4,1.4C49.1,16.3,48.9,16.8,48.9,17.3L48.9,17.3z"/>
	<linearGradient id="SVGID_5_" gradientUnits="userSpaceOnUse" x1="64.1142" y1="30.4351" x2="64.1142" y2="7.3106">
		<stop  offset="0.2327" style="stop-color:#2F518D"/>
		<stop  offset="0.8317" style="stop-color:#2F63A2"/>
	</linearGradient>
	<path fill="url(#SVGID_5_)" d="M63.3,25V12.1h4.4v13.3c0,1.8-0.3,3.1-0.8,3.8c-0.7,0.9-2.1,1.3-4.1,1.3c-0.3,0-0.7,0-1.2,0
		c-0.6,0-1-0.1-1.1-0.1v-3.3c0.6,0.1,1,0.1,1.1,0.1c0.7,0,1.2-0.2,1.4-0.6C63.2,26.3,63.3,25.8,63.3,25z M63.3,10.4V7.3h4.4v3.1
		H63.3z"/>
	<linearGradient id="SVGID_6_" gradientUnits="userSpaceOnUse" x1="77.5888" y1="25.9605" x2="77.5888" y2="11.5606">
		<stop  offset="0.2327" style="stop-color:#2F518D"/>
		<stop  offset="0.8317" style="stop-color:#2F63A2"/>
	</linearGradient>
	<path fill="url(#SVGID_6_)" d="M74.2,16.2H70c0.2-1.8,1.2-3.1,2.8-3.8c1.2-0.5,2.9-0.8,5.1-0.8c2.9,0,5,0.4,6.2,1.3
		c1,0.7,1.5,1.8,1.5,3.2v6.6c0,1.1,0.2,2,0.5,2.7h-4.4c-0.2-0.6-0.3-1-0.3-1.4C80.1,25.3,78,26,75.1,26c-4,0-6-1.5-6-4.3
		c0-2.5,1.9-3.9,5.6-4.1l4.7-0.3c0.7,0,1.2-0.2,1.4-0.3s0.4-0.5,0.4-1.1c0-1.1-1.2-1.6-3.5-1.6c-1,0-1.8,0.1-2.2,0.3
		C74.9,14.7,74.5,15.3,74.2,16.2z M81.3,20v-1.1c-0.6,0.3-1.5,0.5-2.6,0.6l-2.5,0.2c-0.8,0.1-1.4,0.2-1.8,0.5
		c-0.4,0.3-0.5,0.7-0.5,1.3s0.3,1,0.8,1.4c0.5,0.3,1.2,0.5,2,0.5c1.2,0,2.3-0.3,3.2-0.8C80.8,21.9,81.3,21.1,81.3,20z"/>
	<linearGradient id="SVGID_7_" gradientUnits="userSpaceOnUse" x1="108.8017" y1="25.4605" x2="108.8017" y2="11.7105">
		<stop  offset="0.2327" style="stop-color:#2F518D"/>
		<stop  offset="0.8317" style="stop-color:#2F63A2"/>
	</linearGradient>
	<path fill="url(#SVGID_7_)" d="M117,25.5v-8c0-1.5-0.9-2.3-2.7-2.3c-1,0-1.8,0.3-2.4,0.8c-0.6,0.6-1,1.3-1,2.3v7.3h-4.4v-8
		c0-1.5-0.9-2.3-2.6-2.3c-1,0-1.8,0.3-2.4,0.8c-0.7,0.6-1,1.3-1,2.3v7.3h-4.4V12.1h4.3V14h0c0.4-0.6,1.1-1.1,2.1-1.6
		c1-0.5,2.2-0.7,3.4-0.7c2.3,0,3.9,0.8,4.6,2.5c1.3-1.7,3.1-2.5,5.5-2.5c1.5,0,2.8,0.3,3.7,1c1.1,0.8,1.7,2,1.7,3.6v9.1H117z"/>
	<linearGradient id="SVGID_8_" gradientUnits="userSpaceOnUse" x1="131.3632" y1="25.9605" x2="131.3632" y2="11.5606">
		<stop  offset="0.2327" style="stop-color:#2F518D"/>
		<stop  offset="0.8317" style="stop-color:#2F63A2"/>
	</linearGradient>
	<path fill="url(#SVGID_8_)" d="M128,16.2h-4.3c0.2-1.8,1.2-3.1,2.8-3.8c1.2-0.5,2.9-0.8,5.1-0.8c2.9,0,5,0.4,6.2,1.3
		c1,0.7,1.5,1.8,1.5,3.2v6.6c0,1.1,0.2,2,0.5,2.7h-4.4c-0.2-0.6-0.3-1-0.3-1.4c-1.3,1.3-3.4,1.9-6.3,1.9c-4,0-6-1.5-6-4.3
		c0-2.5,1.9-3.9,5.6-4.1l4.7-0.3c0.7,0,1.2-0.2,1.4-0.3s0.4-0.5,0.4-1.1c0-1.1-1.2-1.6-3.5-1.6c-1,0-1.8,0.1-2.2,0.3
		C128.7,14.7,128.3,15.3,128,16.2z M135.1,20v-1.1c-0.6,0.3-1.5,0.5-2.6,0.6l-2.5,0.2c-0.8,0.1-1.4,0.2-1.8,0.5
		c-0.4,0.3-0.5,0.7-0.5,1.3s0.3,1,0.8,1.4c0.5,0.3,1.2,0.5,2,0.5c1.2,0,2.3-0.3,3.2-0.8C134.6,21.9,135.1,21.1,135.1,20z"/>
	<linearGradient id="SVGID_9_" gradientUnits="userSpaceOnUse" x1="143.6513" y1="25.4605" x2="143.6513" y2="7.3106">
		<stop  offset="0.2327" style="stop-color:#2F518D"/>
		<stop  offset="0.8317" style="stop-color:#2F63A2"/>
	</linearGradient>
	<path fill="url(#SVGID_9_)" d="M141.5,10.4V7.3h4.4v3.1H141.5z M141.5,25.5V12.1h4.4v13.4H141.5z"/>
	<linearGradient id="SVGID_10_" gradientUnits="userSpaceOnUse" x1="155.4003" y1="25.9605" x2="155.4003" y2="11.5606">
		<stop  offset="0.2327" style="stop-color:#2F518D"/>
		<stop  offset="0.8317" style="stop-color:#2F63A2"/>
	</linearGradient>
	<path fill="url(#SVGID_10_)" d="M147.3,21.3h4.9c0.2,1.3,1.3,1.9,3.3,1.9c2.1,0,3.2-0.5,3.2-1.5c0-0.4-0.2-0.7-0.5-0.9
		c-0.3-0.2-1-0.4-2-0.5l-4-0.5c-1.5-0.2-2.6-0.6-3.3-1.1c-0.8-0.6-1.2-1.5-1.2-2.7c0-3,2.4-4.5,7.3-4.5c2.8,0,4.9,0.4,6.2,1.3
		c1,0.7,1.6,1.8,1.8,3.2h-4.8c-0.2-1.2-1.2-1.8-3-1.8c-1.9,0-2.9,0.5-2.9,1.4c0,0.3,0.1,0.6,0.4,0.8c0.3,0.2,0.9,0.4,1.8,0.5l3,0.3
		c2.2,0.2,3.7,0.7,4.6,1.4c0.9,0.6,1.3,1.5,1.3,2.8c0,1.8-0.9,3-2.7,3.8c-1.3,0.5-3.2,0.8-5.6,0.8C150.2,26,147.5,24.4,147.3,21.3z"
		/>
</g>
</svg>
