<?xml version="1.0" encoding="utf-8"?>
<!-- Generator: Adobe Illustrator 18.0.0, SVG Export Plug-In . SVG Version: 6.00 Build 0)  -->
<!DOCTYPE svg PUBLIC "-//W3C//DTD SVG 1.1//EN" "http://www.w3.org/Graphics/SVG/1.1/DTD/svg11.dtd">
<svg version="1.1" id="Camada_1" xmlns="http://www.w3.org/2000/svg" xmlns:xlink="http://www.w3.org/1999/xlink" x="0px" y="0px"
	 viewBox="0 0 208.8 39.7" enable-background="new 0 0 208.8 39.7" xml:space="preserve">
<linearGradient id="SVGID_1_" gradientUnits="userSpaceOnUse" x1="15.3333" y1="32.5252" x2="15.3333" y2="12.4745">
	<stop  offset="0.2723" style="stop-color:#2C4981"/>
	<stop  offset="0.5842" style="stop-color:#346AA7"/>
</linearGradient>
<path fill="url(#SVGID_1_)" d="M15.5,14.8c-1-0.9-6.8-4.2-14.6-0.9c0,0,0,1,0,2.3v15.7h11.9c0.4,0.3,1.4,0.6,2.5,0.6
	c1.1,0,2.1-0.2,2.5-0.6h12V16.3c0-1.4,0-2.3,0-2.3C22.3,10.7,16.2,14.1,15.5,14.8z M14.4,30.8c0-0.6-5.6-4.2-12.1-0.3V15.2
	c1.3-0.7,3-1.1,4.9-1.1c4,0,7.2,1.3,7.2,3.6V30.8z M28.4,30.5c-6.5-3.9-12.1-0.3-12.1,0.3V17.7c0-2.3,3.2-3.6,7.2-3.6
	c1.9,0,3.6,0.4,4.9,1.1V30.5z"/>
<g>
	<path fill="#F8A10F" d="M39.5,15.8V5.1h3.4v2.1h0c0.7-0.9,1.3-1.5,1.9-1.8c0.6-0.4,1.4-0.6,2.4-0.6c0.5,0,0.9,0,1.3,0.1v3.3
		c-0.8-0.2-1.4-0.3-1.9-0.3C44.2,7.9,43,9,43,11.2v4.6H39.5z"/>
	<path fill="#F8A10F" d="M58.7,12.6h3.8c-1,2.4-3.2,3.6-6.7,3.6c-2.2,0-3.9-0.5-5.1-1.4c-1.3-1-2-2.5-2-4.4s0.7-3.4,2-4.4
		c1.2-0.9,2.9-1.4,5.1-1.4c2.3,0,4,0.6,5.2,1.7c1.1,1.1,1.7,2.6,1.7,4.7v0.3H52.3v0c0,0.6,0.3,1.2,0.8,1.7c0.7,0.6,1.5,0.9,2.6,0.9
		C57.2,14,58.2,13.5,58.7,12.6z M52.3,9.3H59v0c0-0.5-0.2-0.9-0.7-1.4c-0.6-0.7-1.5-1-2.6-1c-1.2,0-2.1,0.4-2.7,1.1
		C52.5,8.4,52.3,8.9,52.3,9.3L52.3,9.3z"/>
	<path fill="#F8A10F" d="M67.3,15.8L62.4,5.1h4l2.9,7.5l2.9-7.5h4l-4.9,10.7H67.3z"/>
	<path fill="#F8A10F" d="M76.6,3.7V1.3h3.5v2.5H76.6z M76.6,15.8V5.1h3.5v10.7H76.6z"/>
	<path fill="#F8A10F" d="M81.3,12.5h3.9c0.2,1,1,1.5,2.6,1.5c1.7,0,2.5-0.4,2.5-1.2c0-0.3-0.1-0.5-0.4-0.7c-0.3-0.2-0.8-0.3-1.6-0.4
		l-3.2-0.4c-1.2-0.2-2.1-0.5-2.6-0.9c-0.6-0.5-0.9-1.2-0.9-2.2c0-2.4,2-3.6,5.9-3.6c2.3,0,3.9,0.4,4.9,1.1c0.8,0.6,1.3,1.4,1.4,2.6
		h-3.9c-0.2-1-1-1.4-2.4-1.4c-1.5,0-2.3,0.4-2.3,1.1c0,0.3,0.1,0.5,0.3,0.6C85.9,8.8,86.3,8.9,87,9l2.4,0.3c1.7,0.2,3,0.6,3.7,1.1
		c0.7,0.5,1,1.2,1,2.2c0,1.4-0.7,2.4-2.2,3c-1,0.4-2.5,0.6-4.5,0.6C83.6,16.2,81.5,14.9,81.3,12.5z"/>
	<path fill="#F8A10F" d="M96.5,5.1V1.7h3.5v3.3h2.8v2.4h-2.8v5c0,0.4,0.1,0.7,0.3,0.9c0.2,0.2,0.5,0.2,0.9,0.2c0.4,0,1,0,1.7-0.1
		v2.4c-1.1,0.1-2,0.2-2.8,0.2c-1.5,0-2.6-0.3-3.1-0.9c-0.4-0.4-0.6-1.2-0.6-2.3V7.4h-2.2V5.1H96.5z"/>
	<path fill="#F8A10F" d="M107.1,8.3h-3.4c0.2-1.5,0.9-2.5,2.2-3.1c0.9-0.4,2.3-0.6,4.1-0.6c2.3,0,4,0.4,5,1.1
		c0.8,0.6,1.2,1.4,1.2,2.6v5.3c0,0.8,0.1,1.6,0.4,2.2h-3.5c-0.1-0.5-0.2-0.8-0.2-1.1c-1,1-2.7,1.5-5,1.5c-3.2,0-4.8-1.2-4.8-3.5
		c0-2,1.5-3.1,4.4-3.3l3.7-0.3c0.6,0,0.9-0.1,1.1-0.3c0.2-0.1,0.3-0.4,0.3-0.8c0-0.9-0.9-1.3-2.8-1.3c-0.8,0-1.4,0.1-1.8,0.2
		C107.7,7.2,107.4,7.6,107.1,8.3z M112.8,11.4v-0.9c-0.5,0.2-1.2,0.4-2.1,0.5l-2,0.2c-0.7,0.1-1.1,0.2-1.4,0.4
		c-0.3,0.2-0.4,0.5-0.4,1c0,0.5,0.2,0.8,0.6,1.1c0.4,0.3,0.9,0.4,1.6,0.4c1,0,1.8-0.2,2.5-0.7C112.4,12.9,112.8,12.3,112.8,11.4z"/>
</g>
<g opacity="0.15">
	<path fill="#555655" d="M52.9,26.2h-3.9c-0.1-0.7-0.5-1.3-1.2-1.5c-0.5-0.2-1.2-0.3-2.1-0.3c-0.7,0-1.3,0.1-1.7,0.4
		c-0.4,0.3-0.7,0.6-0.7,1.1c0,0.6,0.5,1,1.5,1.2l4.4,0.7c2.7,0.4,4.1,1.6,4.1,3.6c0,2.9-2.2,4.3-6.7,4.3c-2.1,0-3.7-0.2-4.8-0.7
		c-1.6-0.7-2.5-1.9-2.5-3.7h3.9c0,1.4,1.1,2.1,3.3,2.1c1.8,0,2.8-0.5,2.8-1.6c0-0.5-0.2-0.8-0.6-1c-0.3-0.2-0.8-0.3-1.6-0.5
		l-3.2-0.5c-1.4-0.2-2.4-0.5-3-1c-0.9-0.6-1.3-1.5-1.3-2.7c0-2.7,2.1-4,6.4-4C50.5,22.1,52.7,23.4,52.9,26.2z"/>
	<path fill="#555655" d="M62.5,35.3V34h0c-0.3,0.4-0.8,0.8-1.5,1.1c-0.8,0.3-1.6,0.5-2.4,0.5c-1.1,0-2-0.2-2.7-0.7
		c-1-0.6-1.5-1.5-1.5-2.8v-6.5h3.2v5.6c0,1.3,0.7,2,2.2,2c1.8,0,2.7-0.9,2.7-2.7v-4.8h3.2v9.6H62.5z"/>
	<path fill="#555655" d="M67.1,38.9V25.6h3.1v1.3h0c0.6-0.6,1.1-1,1.7-1.3c0.5-0.2,1.1-0.3,1.9-0.3c1.6,0,3,0.4,4,1.3
		c1.1,0.9,1.6,2.2,1.6,3.8c0,1.5-0.5,2.8-1.5,3.8c-1,1-2.3,1.4-3.9,1.4c-1.8,0-3-0.5-3.7-1.4v4.7H67.1z M70.2,30.5
		c0,0.9,0.3,1.6,0.9,2.1c0.5,0.5,1.2,0.7,2.1,0.7c0.9,0,1.5-0.2,2.1-0.7c0.6-0.5,0.9-1.2,0.9-2.1s-0.3-1.6-0.9-2.1
		c-0.5-0.5-1.2-0.7-2.1-0.7c-0.8,0-1.5,0.2-2.1,0.7C70.5,28.9,70.2,29.6,70.2,30.5z"/>
	<path fill="#555655" d="M89.1,32.4h3.4c-0.9,2.2-2.9,3.2-6,3.2c-2,0-3.5-0.4-4.6-1.2c-1.2-0.9-1.8-2.2-1.8-4c0-1.8,0.6-3.1,1.8-4
		c1.1-0.8,2.6-1.2,4.6-1.2c2.1,0,3.6,0.5,4.7,1.5c1,1,1.5,2.4,1.5,4.2v0.3h-9.3v0c0,0.6,0.2,1.1,0.7,1.5c0.6,0.5,1.4,0.8,2.4,0.8
		C87.7,33.7,88.6,33.2,89.1,32.4z M83.3,29.4h6v0c0-0.4-0.2-0.8-0.6-1.3c-0.6-0.6-1.4-0.9-2.4-0.9c-1.1,0-1.9,0.3-2.4,1
		C83.5,28.7,83.3,29.1,83.3,29.4L83.3,29.4z"/>
	<path fill="#555655" d="M93.7,35.3v-9.6h3.1v1.9h0c0.6-0.8,1.2-1.3,1.7-1.6c0.6-0.3,1.3-0.5,2.2-0.5c0.5,0,0.9,0,1.2,0.1v3
		c-0.7-0.2-1.3-0.3-1.7-0.3c-2.1,0-3.2,1-3.2,3v4.2H93.7z"/>
	<path fill="#555655" d="M117.5,35.3v-5.8c0-1.1-0.6-1.7-1.9-1.7c-0.7,0-1.3,0.2-1.7,0.5c-0.5,0.4-0.7,1-0.7,1.7v5.2H110v-5.8
		c0-1.1-0.6-1.7-1.9-1.7c-0.7,0-1.3,0.2-1.7,0.5c-0.5,0.4-0.7,1-0.7,1.7v5.2h-3.2v-9.6h3.1V27h0c0.3-0.4,0.8-0.8,1.5-1.1
		c0.8-0.3,1.6-0.5,2.4-0.5c1.7,0,2.8,0.6,3.3,1.8c0.9-1.2,2.3-1.8,4-1.8c1.1,0,2,0.2,2.6,0.7c0.8,0.6,1.2,1.5,1.2,2.6v6.5H117.5z"/>
	<path fill="#555655" d="M130.8,32.4h3.4c-0.9,2.2-2.9,3.2-6,3.2c-2,0-3.5-0.4-4.6-1.2c-1.2-0.9-1.8-2.2-1.8-4c0-1.8,0.6-3.1,1.8-4
		c1.1-0.8,2.6-1.2,4.6-1.2c2.1,0,3.6,0.5,4.7,1.5c1,1,1.5,2.4,1.5,4.2v0.3h-9.3v0c0,0.6,0.2,1.1,0.7,1.5c0.6,0.5,1.4,0.8,2.4,0.8
		C129.4,33.7,130.3,33.2,130.8,32.4z M125.1,29.4h6v0c0-0.4-0.2-0.8-0.6-1.3c-0.6-0.6-1.4-0.9-2.4-0.9c-1.1,0-1.9,0.3-2.4,1
		C125.2,28.7,125.1,29.1,125.1,29.4L125.1,29.4z"/>
	<path fill="#555655" d="M135.4,35.3v-9.6h3.1v1.9h0c0.6-0.8,1.2-1.3,1.7-1.6c0.6-0.3,1.3-0.5,2.2-0.5c0.5,0,0.9,0,1.2,0.1v3
		c-0.7-0.2-1.3-0.3-1.7-0.3c-2.1,0-3.2,1-3.2,3v4.2H135.4z"/>
	<path fill="#555655" d="M156.1,29.2h-3.3c-0.3-1.1-1.2-1.7-2.6-1.7c-1,0-1.7,0.3-2.3,0.8c-0.5,0.5-0.8,1.2-0.8,2.2
		c0,0.9,0.3,1.7,0.8,2.2c0.5,0.5,1.3,0.8,2.3,0.8c0.7,0,1.3-0.2,1.8-0.5c0.5-0.4,0.8-0.8,0.8-1.4h3.3c-0.3,1.6-1,2.7-2.1,3.4
		c-0.9,0.5-2.3,0.8-4,0.8c-1.9,0-3.4-0.4-4.4-1.2c-1.1-0.9-1.7-2.2-1.7-4c0-1.8,0.6-3.1,1.8-4c1.1-0.8,2.6-1.2,4.6-1.2
		C153.6,25.3,155.6,26.6,156.1,29.2z"/>
	<path fill="#555655" d="M160.1,28.6h-3.1c0.2-1.3,0.8-2.3,2-2.8c0.8-0.4,2.1-0.5,3.7-0.5c2.1,0,3.6,0.3,4.5,1c0.7,0.5,1,1.3,1,2.3
		v4.8c0,0.8,0.1,1.4,0.4,1.9h-3.2c-0.1-0.4-0.2-0.8-0.2-1c-0.9,0.9-2.4,1.4-4.5,1.4c-2.9,0-4.3-1-4.3-3.1c0-1.8,1.3-2.8,4-3l3.4-0.2
		c0.5,0,0.8-0.1,1-0.3c0.2-0.1,0.3-0.4,0.3-0.8c0-0.8-0.8-1.2-2.5-1.2c-0.8,0-1.3,0.1-1.6,0.2C160.6,27.6,160.3,28,160.1,28.6z
		 M165.2,31.4v-0.8c-0.4,0.2-1,0.3-1.9,0.4l-1.8,0.2c-0.6,0-1,0.2-1.3,0.4s-0.4,0.5-0.4,0.9s0.2,0.8,0.5,1c0.4,0.2,0.8,0.4,1.4,0.4
		c0.9,0,1.6-0.2,2.3-0.6C164.9,32.7,165.2,32.1,165.2,31.4z"/>
	<path fill="#555655" d="M178.6,35.3v-1.2h0c-0.9,1-2.1,1.6-3.8,1.6c-1.6,0-2.8-0.4-3.8-1.3c-1-0.9-1.6-2.2-1.6-3.8
		c0-1.5,0.5-2.8,1.5-3.8c1-1,2.3-1.4,3.9-1.4c1.8,0,3,0.5,3.7,1.4v-4.6h3.2v13.1H178.6z M172.7,30.5c0,0.9,0.3,1.6,0.9,2.1
		c0.5,0.5,1.2,0.7,2.1,0.7c0.8,0,1.5-0.2,2.1-0.7c0.6-0.5,0.9-1.2,0.9-2.1s-0.3-1.6-0.9-2.1c-0.6-0.5-1.2-0.7-2.1-0.7
		c-0.9,0-1.5,0.2-2.1,0.7C173,28.9,172.7,29.6,172.7,30.5z"/>
	<path fill="#555655" d="M182.8,30.5c0-1.8,0.6-3.1,1.8-4c1.1-0.8,2.6-1.2,4.6-1.2s3.5,0.4,4.6,1.2c1.2,0.9,1.7,2.2,1.7,4
		c0,1.8-0.6,3.1-1.7,4c-1.1,0.8-2.6,1.2-4.6,1.2s-3.5-0.4-4.6-1.2C183.4,33.5,182.8,32.2,182.8,30.5z M186.1,30.5
		c0,0.9,0.3,1.7,0.8,2.2c0.5,0.5,1.3,0.8,2.3,0.8c1,0,1.7-0.3,2.3-0.8c0.5-0.5,0.8-1.2,0.8-2.2c0-0.9-0.3-1.7-0.8-2.2
		c-0.5-0.5-1.3-0.8-2.3-0.8c-1,0-1.7,0.3-2.3,0.8C186.4,28.8,186.1,29.5,186.1,30.5z"/>
	<path fill="#555655" d="M196.2,32.3h3.5c0.2,0.9,0.9,1.4,2.4,1.4c1.5,0,2.3-0.3,2.3-1c0-0.3-0.1-0.5-0.3-0.6
		c-0.2-0.1-0.7-0.3-1.5-0.4l-2.9-0.4c-1.1-0.1-1.9-0.4-2.3-0.8c-0.6-0.4-0.8-1.1-0.8-1.9c0-2.2,1.8-3.2,5.3-3.2c2.1,0,3.5,0.3,4.4,1
		c0.7,0.5,1.1,1.3,1.3,2.3H204c-0.2-0.9-0.9-1.3-2.1-1.3c-1.4,0-2.1,0.3-2.1,1c0,0.3,0.1,0.4,0.3,0.6c0.2,0.2,0.7,0.3,1.3,0.3
		l2.2,0.2c1.6,0.2,2.7,0.5,3.3,1c0.6,0.5,0.9,1.1,0.9,2c0,1.3-0.6,2.2-1.9,2.7c-0.9,0.4-2.3,0.6-4,0.6
		C198.2,35.6,196.3,34.5,196.2,32.3z"/>
</g>
<g>
	<linearGradient id="SVGID_2_" gradientUnits="userSpaceOnUse" x1="45.4749" y1="34.6382" x2="45.4749" y2="21.0664">
		<stop  offset="0.2723" style="stop-color:#2C4981"/>
		<stop  offset="0.5842" style="stop-color:#346AA7"/>
	</linearGradient>
	<path fill="url(#SVGID_2_)" d="M51.9,25.2h-3.9c-0.1-0.7-0.5-1.3-1.2-1.5c-0.5-0.2-1.2-0.3-2.1-0.3c-0.7,0-1.3,0.1-1.7,0.4
		c-0.4,0.3-0.7,0.6-0.7,1.1c0,0.6,0.5,1,1.5,1.2l4.4,0.7c2.7,0.4,4.1,1.6,4.1,3.6c0,2.9-2.2,4.3-6.7,4.3c-2.1,0-3.7-0.2-4.8-0.7
		c-1.6-0.7-2.5-1.9-2.5-3.7h3.9c0,1.4,1.1,2.1,3.3,2.1c1.8,0,2.8-0.5,2.8-1.6c0-0.5-0.2-0.8-0.6-1c-0.3-0.2-0.8-0.3-1.6-0.5
		l-3.2-0.5c-1.4-0.2-2.4-0.5-3-1c-0.9-0.6-1.3-1.5-1.3-2.7c0-2.7,2.1-4,6.4-4C49.5,21.1,51.7,22.4,51.9,25.2z"/>
	<linearGradient id="SVGID_3_" gradientUnits="userSpaceOnUse" x1="58.9388" y1="34.6382" x2="58.9388" y2="24.6304">
		<stop  offset="0.2723" style="stop-color:#2C4981"/>
		<stop  offset="0.5842" style="stop-color:#346AA7"/>
	</linearGradient>
	<path fill="url(#SVGID_3_)" d="M61.5,34.3V33h0c-0.3,0.4-0.8,0.8-1.5,1.1c-0.8,0.3-1.6,0.5-2.4,0.5c-1.1,0-2-0.2-2.7-0.7
		c-1-0.6-1.5-1.5-1.5-2.8v-6.5h3.2v5.6c0,1.3,0.7,2,2.2,2c1.8,0,2.7-0.9,2.7-2.7v-4.8h3.2v9.6H61.5z"/>
	<linearGradient id="SVGID_4_" gradientUnits="userSpaceOnUse" x1="72.2948" y1="37.8599" x2="72.2948" y2="24.3784">
		<stop  offset="0.2723" style="stop-color:#2C4981"/>
		<stop  offset="0.5842" style="stop-color:#346AA7"/>
	</linearGradient>
	<path fill="url(#SVGID_4_)" d="M66.1,37.9V24.6h3.1v1.3h0c0.6-0.6,1.1-1,1.7-1.3c0.5-0.2,1.1-0.3,1.9-0.3c1.6,0,3,0.4,4,1.3
		c1.1,0.9,1.6,2.2,1.6,3.8c0,1.5-0.5,2.8-1.5,3.8c-1,1-2.3,1.4-3.9,1.4c-1.8,0-3-0.5-3.7-1.4v4.7H66.1z M69.2,29.5
		c0,0.9,0.3,1.6,0.9,2.1c0.5,0.5,1.2,0.7,2.1,0.7c0.9,0,1.5-0.2,2.1-0.7c0.6-0.5,0.9-1.2,0.9-2.1s-0.3-1.6-0.9-2.1
		c-0.5-0.5-1.2-0.7-2.1-0.7c-0.8,0-1.5,0.2-2.1,0.7C69.5,27.9,69.2,28.6,69.2,29.5z"/>
	<linearGradient id="SVGID_5_" gradientUnits="userSpaceOnUse" x1="85.3543" y1="34.6382" x2="85.3543" y2="24.2705">
		<stop  offset="0.2723" style="stop-color:#2C4981"/>
		<stop  offset="0.5842" style="stop-color:#346AA7"/>
	</linearGradient>
	<path fill="url(#SVGID_5_)" d="M88.1,31.4h3.4c-0.9,2.2-2.9,3.2-6,3.2c-2,0-3.5-0.4-4.6-1.2c-1.2-0.9-1.8-2.2-1.8-4
		c0-1.8,0.6-3.1,1.8-4c1.1-0.8,2.6-1.2,4.6-1.2c2.1,0,3.6,0.5,4.7,1.5c1,1,1.5,2.4,1.5,4.2v0.3h-9.3v0c0,0.6,0.2,1.1,0.7,1.5
		c0.6,0.5,1.4,0.8,2.4,0.8C86.7,32.7,87.6,32.2,88.1,31.4z M82.3,28.4h6v0c0-0.4-0.2-0.8-0.6-1.3c-0.6-0.6-1.4-0.9-2.4-0.9
		c-1.1,0-1.9,0.3-2.4,1C82.5,27.7,82.3,28.1,82.3,28.4L82.3,28.4z"/>
	<linearGradient id="SVGID_6_" gradientUnits="userSpaceOnUse" x1="96.766" y1="34.2783" x2="96.766" y2="24.3784">
		<stop  offset="0.2723" style="stop-color:#2C4981"/>
		<stop  offset="0.5842" style="stop-color:#346AA7"/>
	</linearGradient>
	<path fill="url(#SVGID_6_)" d="M92.7,34.3v-9.6h3.1v1.9h0c0.6-0.8,1.2-1.3,1.7-1.6c0.6-0.3,1.3-0.5,2.2-0.5c0.5,0,0.9,0,1.2,0.1v3
		c-0.7-0.2-1.3-0.3-1.7-0.3c-2.1,0-3.2,1-3.2,3v4.2H92.7z"/>
	<linearGradient id="SVGID_7_" gradientUnits="userSpaceOnUse" x1="110.6077" y1="34.2783" x2="110.6077" y2="24.3784">
		<stop  offset="0.2723" style="stop-color:#2C4981"/>
		<stop  offset="0.5842" style="stop-color:#346AA7"/>
	</linearGradient>
	<path fill="url(#SVGID_7_)" d="M116.5,34.3v-5.8c0-1.1-0.6-1.7-1.9-1.7c-0.7,0-1.3,0.2-1.7,0.5c-0.5,0.4-0.7,1-0.7,1.7v5.2H109
		v-5.8c0-1.1-0.6-1.7-1.9-1.7c-0.7,0-1.3,0.2-1.7,0.5c-0.5,0.4-0.7,1-0.7,1.7v5.2h-3.2v-9.6h3.1V26h0c0.3-0.4,0.8-0.8,1.5-1.1
		c0.8-0.3,1.6-0.5,2.4-0.5c1.7,0,2.8,0.6,3.3,1.8c0.9-1.2,2.3-1.8,4-1.8c1.1,0,2,0.2,2.6,0.7c0.8,0.6,1.2,1.5,1.2,2.6v6.5H116.5z"/>
	<linearGradient id="SVGID_8_" gradientUnits="userSpaceOnUse" x1="127.0594" y1="34.6382" x2="127.0594" y2="24.2705">
		<stop  offset="0.2723" style="stop-color:#2C4981"/>
		<stop  offset="0.5842" style="stop-color:#346AA7"/>
	</linearGradient>
	<path fill="url(#SVGID_8_)" d="M129.8,31.4h3.4c-0.9,2.2-2.9,3.2-6,3.2c-2,0-3.5-0.4-4.6-1.2c-1.2-0.9-1.8-2.2-1.8-4
		c0-1.8,0.6-3.1,1.8-4c1.1-0.8,2.6-1.2,4.6-1.2c2.1,0,3.6,0.5,4.7,1.5c1,1,1.5,2.4,1.5,4.2v0.3h-9.3v0c0,0.6,0.2,1.1,0.7,1.5
		c0.6,0.5,1.4,0.8,2.4,0.8C128.4,32.7,129.3,32.2,129.8,31.4z M124.1,28.4h6v0c0-0.4-0.2-0.8-0.6-1.3c-0.6-0.6-1.4-0.9-2.4-0.9
		c-1.1,0-1.9,0.3-2.4,1C124.2,27.7,124.1,28.1,124.1,28.4L124.1,28.4z"/>
	<linearGradient id="SVGID_9_" gradientUnits="userSpaceOnUse" x1="138.472" y1="34.2783" x2="138.472" y2="24.3784">
		<stop  offset="0.2723" style="stop-color:#2C4981"/>
		<stop  offset="0.5842" style="stop-color:#346AA7"/>
	</linearGradient>
	<path fill="url(#SVGID_9_)" d="M134.4,34.3v-9.6h3.1v1.9h0c0.6-0.8,1.2-1.3,1.7-1.6c0.6-0.3,1.3-0.5,2.2-0.5c0.5,0,0.9,0,1.2,0.1v3
		c-0.7-0.2-1.3-0.3-1.7-0.3c-2.1,0-3.2,1-3.2,3v4.2H134.4z"/>
	<linearGradient id="SVGID_10_" gradientUnits="userSpaceOnUse" x1="148.9119" y1="34.6382" x2="148.9119" y2="24.2705">
		<stop  offset="0.2723" style="stop-color:#2C4981"/>
		<stop  offset="0.5842" style="stop-color:#346AA7"/>
	</linearGradient>
	<path fill="url(#SVGID_10_)" d="M155.1,28.2h-3.3c-0.3-1.1-1.2-1.7-2.6-1.7c-1,0-1.7,0.3-2.3,0.8c-0.5,0.5-0.8,1.2-0.8,2.2
		c0,0.9,0.3,1.7,0.8,2.2c0.5,0.5,1.3,0.8,2.3,0.8c0.7,0,1.3-0.2,1.8-0.5c0.5-0.4,0.8-0.8,0.8-1.4h3.3c-0.3,1.6-1,2.7-2.1,3.4
		c-0.9,0.5-2.3,0.8-4,0.8c-1.9,0-3.4-0.4-4.4-1.2c-1.1-0.9-1.7-2.2-1.7-4c0-1.8,0.6-3.1,1.8-4c1.1-0.8,2.6-1.2,4.6-1.2
		C152.6,24.3,154.6,25.6,155.1,28.2z"/>
	<linearGradient id="SVGID_11_" gradientUnits="userSpaceOnUse" x1="161.557" y1="34.6382" x2="161.557" y2="24.2705">
		<stop  offset="0.2723" style="stop-color:#2C4981"/>
		<stop  offset="0.5842" style="stop-color:#346AA7"/>
	</linearGradient>
	<path fill="url(#SVGID_11_)" d="M159.1,27.6h-3.1c0.2-1.3,0.8-2.3,2-2.8c0.8-0.4,2.1-0.5,3.7-0.5c2.1,0,3.6,0.3,4.5,1
		c0.7,0.5,1,1.3,1,2.3v4.8c0,0.8,0.1,1.4,0.4,1.9h-3.2c-0.1-0.4-0.2-0.8-0.2-1c-0.9,0.9-2.4,1.4-4.5,1.4c-2.9,0-4.3-1-4.3-3.1
		c0-1.8,1.3-2.8,4-3l3.4-0.2c0.5,0,0.8-0.1,1-0.3c0.2-0.1,0.3-0.4,0.3-0.8c0-0.8-0.8-1.2-2.5-1.2c-0.8,0-1.3,0.1-1.6,0.2
		C159.6,26.6,159.3,27,159.1,27.6z M164.2,30.4v-0.8c-0.4,0.2-1,0.3-1.9,0.4l-1.8,0.2c-0.6,0-1,0.2-1.3,0.4s-0.4,0.5-0.4,0.9
		s0.2,0.8,0.5,1c0.4,0.2,0.8,0.4,1.4,0.4c0.9,0,1.6-0.2,2.3-0.6C163.9,31.7,164.2,31.1,164.2,30.4z"/>
	<linearGradient id="SVGID_12_" gradientUnits="userSpaceOnUse" x1="174.535" y1="34.6382" x2="174.535" y2="21.2104">
		<stop  offset="0.2723" style="stop-color:#2C4981"/>
		<stop  offset="0.5842" style="stop-color:#346AA7"/>
	</linearGradient>
	<path fill="url(#SVGID_12_)" d="M177.6,34.3v-1.2h0c-0.9,1-2.1,1.6-3.8,1.6c-1.6,0-2.8-0.4-3.8-1.3c-1-0.9-1.6-2.2-1.6-3.8
		c0-1.5,0.5-2.8,1.5-3.8c1-1,2.3-1.4,3.9-1.4c1.8,0,3,0.5,3.7,1.4v-4.6h3.2v13.1H177.6z M171.7,29.5c0,0.9,0.3,1.6,0.9,2.1
		c0.5,0.5,1.2,0.7,2.1,0.7c0.8,0,1.5-0.2,2.1-0.7c0.6-0.5,0.9-1.2,0.9-2.1s-0.3-1.6-0.9-2.1c-0.6-0.5-1.2-0.7-2.1-0.7
		c-0.9,0-1.5,0.2-2.1,0.7C172,27.9,171.7,28.6,171.7,29.5z"/>
	<linearGradient id="SVGID_13_" gradientUnits="userSpaceOnUse" x1="188.2054" y1="34.6382" x2="188.2054" y2="24.2705">
		<stop  offset="0.2723" style="stop-color:#2C4981"/>
		<stop  offset="0.5842" style="stop-color:#346AA7"/>
	</linearGradient>
	<path fill="url(#SVGID_13_)" d="M181.8,29.5c0-1.8,0.6-3.1,1.8-4c1.1-0.8,2.6-1.2,4.6-1.2s3.5,0.4,4.6,1.2c1.2,0.9,1.7,2.2,1.7,4
		c0,1.8-0.6,3.1-1.7,4c-1.1,0.8-2.6,1.2-4.6,1.2s-3.5-0.4-4.6-1.2C182.4,32.5,181.8,31.2,181.8,29.5z M185.1,29.5
		c0,0.9,0.3,1.7,0.8,2.2c0.5,0.5,1.3,0.8,2.3,0.8c1,0,1.7-0.3,2.3-0.8c0.5-0.5,0.8-1.2,0.8-2.2c0-0.9-0.3-1.7-0.8-2.2
		c-0.5-0.5-1.3-0.8-2.3-0.8c-1,0-1.7,0.3-2.3,0.8C185.4,27.8,185.1,28.5,185.1,29.5z"/>
	<linearGradient id="SVGID_14_" gradientUnits="userSpaceOnUse" x1="201.0037" y1="34.6382" x2="201.0037" y2="24.2705">
		<stop  offset="0.2723" style="stop-color:#2C4981"/>
		<stop  offset="0.5842" style="stop-color:#346AA7"/>
	</linearGradient>
	<path fill="url(#SVGID_14_)" d="M195.2,31.3h3.5c0.2,0.9,0.9,1.4,2.4,1.4c1.5,0,2.3-0.3,2.3-1c0-0.3-0.1-0.5-0.3-0.6
		c-0.2-0.1-0.7-0.3-1.5-0.4l-2.9-0.4c-1.1-0.1-1.9-0.4-2.3-0.8c-0.6-0.4-0.8-1.1-0.8-1.9c0-2.2,1.8-3.2,5.3-3.2c2.1,0,3.5,0.3,4.4,1
		c0.7,0.5,1.1,1.3,1.3,2.3H203c-0.2-0.9-0.9-1.3-2.1-1.3c-1.4,0-2.1,0.3-2.1,1c0,0.3,0.1,0.4,0.3,0.6c0.2,0.2,0.7,0.3,1.3,0.3
		l2.2,0.2c1.6,0.2,2.7,0.5,3.3,1c0.6,0.5,0.9,1.1,0.9,2c0,1.3-0.6,2.2-1.9,2.7c-0.9,0.4-2.3,0.6-4,0.6
		C197.2,34.6,195.3,33.5,195.2,31.3z"/>
</g>
</svg>
